<svg width="14" height="14" viewBox="0 0 14 14" fill="none" xmlns="http://www.w3.org/2000/svg">
<g clip-path="url(#clip0)">
<path d="M12.7497 12.4999C13.0644 12.4999 13.3371 12.396 13.5689 12.1908L9.60245 8.22421C9.50729 8.29236 9.41505 8.35862 9.32791 8.42163C9.03108 8.64033 8.79017 8.81098 8.60518 8.93327C8.42022 9.05583 8.17412 9.18076 7.86692 9.30831C7.55952 9.43601 7.27314 9.49965 7.00747 9.49965H6.99969H6.99192C6.72622 9.49965 6.43984 9.43603 6.13246 9.30831C5.82509 9.18076 5.57899 9.05583 5.3942 8.93327C5.20924 8.81098 4.96845 8.64035 4.67147 8.42163C4.58871 8.36096 4.49693 8.29439 4.3977 8.22314L0.430511 12.1908C0.662296 12.396 0.935157 12.4999 1.24983 12.4999H12.7497Z" fill="#1ABAC7"/>
<path d="M0.789147 5.72665C0.492343 5.52877 0.229142 5.30215 0 5.04688V11.0817L3.49599 7.58571C2.79659 7.09743 1.89546 6.47846 0.789147 5.72665Z" fill="#1ABAC7"/>
<path d="M13.219 5.72665C12.1549 6.44689 11.2505 7.06693 10.5057 7.58711L14.0003 11.0819V5.04688C13.7762 5.29701 13.5158 5.52348 13.219 5.72665Z" fill="#1ABAC7"/>
<path d="M12.7501 1.5H1.25026C0.849062 1.5 0.540617 1.63548 0.32454 1.90615C0.108285 2.17695 0.000335693 2.51562 0.000335693 2.92177C0.000335693 3.24984 0.14359 3.60531 0.429973 3.98828C0.716355 4.37109 1.02109 4.67179 1.34402 4.89051C1.52106 5.01559 2.05493 5.38674 2.94565 6.00383C3.42648 6.33703 3.84463 6.62746 4.20396 6.87808C4.51024 7.09149 4.77438 7.2763 4.99247 7.42967C5.01751 7.44723 5.05688 7.4754 5.10914 7.51276C5.16544 7.5532 5.23668 7.60452 5.32458 7.66799C5.49384 7.7904 5.63445 7.88935 5.74644 7.96494C5.85828 8.04056 5.99378 8.12502 6.15274 8.21882C6.31158 8.31248 6.46139 8.38291 6.602 8.42976C6.74264 8.47658 6.87283 8.50006 6.9926 8.50006H7.00037H7.00815C7.1279 8.50006 7.25811 8.47658 7.39877 8.42976C7.53936 8.38291 7.68904 8.31263 7.84801 8.21882C8.00682 8.12502 8.14214 8.04038 8.25434 7.96494C8.36633 7.88935 8.50694 7.79042 8.67622 7.66799C8.76394 7.60452 8.83518 7.55317 8.89149 7.51289C8.94377 7.47537 8.98312 7.44739 9.00831 7.42967C9.1782 7.31145 9.44295 7.1274 9.7989 6.88024C10.4466 6.43022 11.4005 5.76785 12.6646 4.89051C13.0447 4.62497 13.3624 4.30452 13.6176 3.92964C13.8724 3.55475 14.0002 3.16151 14.0002 2.75005C14.0002 2.40627 13.8763 2.11211 13.6291 1.86711C13.3817 1.62241 13.0886 1.5 12.7501 1.5Z" fill="#1ABAC7"/>
</g>
<defs>
<clipPath id="clip0">
<rect width="14" height="14" fill="white"/>
</clipPath>
</defs>
</svg>
