<svg width="14" height="14" viewBox="0 0 14 14" fill="none" xmlns="http://www.w3.org/2000/svg">
<path d="M7.00005 0C4.20429 0 1.92978 2.27451 1.92978 5.07024C1.92978 8.53983 6.46717 13.6334 6.66036 13.8485C6.84181 14.0506 7.15862 14.0503 7.33974 13.8485C7.53292 13.6334 12.0703 8.53983 12.0703 5.07024C12.0703 2.27451 9.79578 0 7.00005 0ZM7.00005 7.62122C5.59343 7.62122 4.4491 6.47686 4.4491 5.07024C4.4491 3.66362 5.59346 2.51929 7.00005 2.51929C8.40664 2.51929 9.55097 3.66365 9.55097 5.07027C9.55097 6.47689 8.40664 7.62122 7.00005 7.62122Z" fill="#1ABAC7"/>
</svg>
