<svg width="14" height="14" viewBox="0 0 14 14" fill="none" xmlns="http://www.w3.org/2000/svg">
<g clip-path="url(#clip0)">
<path d="M10.6437 9.26141C10.1863 8.80985 9.61534 8.80985 9.16087 9.26141C8.81419 9.60517 8.46751 9.94894 8.12666 10.2985C8.03344 10.3947 7.95478 10.4151 7.84116 10.351C7.61684 10.2286 7.37795 10.1296 7.16237 9.99555C6.15729 9.36337 5.31536 8.55057 4.56956 7.63581C4.19958 7.18134 3.87038 6.69482 3.64023 6.14713C3.59362 6.03642 3.60236 5.96359 3.69267 5.87328C4.03935 5.53825 4.37729 5.19449 4.71814 4.85072C5.193 4.37295 5.193 3.8136 4.71523 3.33291C4.44429 3.05906 4.17336 2.79104 3.90242 2.51719C3.62275 2.23752 3.34599 1.95493 3.0634 1.67817C2.60602 1.23244 2.03502 1.23244 1.58055 1.68109C1.23096 2.02485 0.895932 2.37736 0.540513 2.7153C0.211314 3.02702 0.0452576 3.40865 0.0102984 3.85438C-0.0450537 4.57979 0.132656 5.26441 0.383197 5.93154C0.895932 7.31243 1.67669 8.53892 2.6235 9.66344C3.90242 11.1842 5.42898 12.3873 7.21481 13.2555C8.01887 13.6459 8.85207 13.9459 9.75809 13.9955C10.3815 14.0304 10.9234 13.8731 11.3575 13.3866C11.6546 13.0545 11.9897 12.7515 12.3043 12.434C12.7704 11.962 12.7733 11.391 12.3101 10.9249C11.7566 10.3685 11.2002 9.81493 10.6437 9.26141Z" fill="#1ABAC7"/>
<path d="M10.0873 6.93954L11.1623 6.75601C10.9933 5.76841 10.5272 4.87403 9.81928 4.1632C9.07057 3.41449 8.12376 2.94254 7.08081 2.79688L6.92932 3.8777C7.7363 3.99132 8.47044 4.35547 9.05018 4.93521C9.59787 5.48291 9.95621 6.17627 10.0873 6.93954Z" fill="#1ABAC7"/>
<path d="M11.7682 2.26652C10.5272 1.02547 8.95694 0.241801 7.22354 0L7.07205 1.08082C8.56947 1.29058 9.92705 1.96937 10.9991 3.03854C12.0159 4.05527 12.683 5.34002 12.9248 6.75295L13.9998 6.56942C13.7172 4.93216 12.9452 3.4464 11.7682 2.26652Z" fill="#1ABAC7"/>
</g>
<defs>
<clipPath id="clip0">
<rect width="14" height="14" fill="white"/>
</clipPath>
</defs>
</svg>
