<svg width="14" height="14" viewBox="0 0 14 14" fill="none" xmlns="http://www.w3.org/2000/svg">
<path d="M11.0644 8.6725C10.7778 8.37406 10.4321 8.2145 10.0657 8.2145C9.70226 8.2145 9.3536 8.37111 9.05516 8.66954L8.12145 9.6003C8.04462 9.55893 7.9678 9.52052 7.89393 9.48211C7.78755 9.42892 7.68709 9.37869 7.6014 9.32551C6.72678 8.77 5.93194 8.04608 5.16961 7.10941C4.80026 6.64255 4.55205 6.24956 4.37181 5.85067C4.6141 5.62906 4.83867 5.39858 5.05732 5.17697C5.14006 5.09424 5.22279 5.00855 5.30553 4.92581C5.92603 4.30531 5.92603 3.5016 5.30553 2.8811L4.49887 2.07444C4.40727 1.98284 4.31271 1.88828 4.22407 1.79373C4.04678 1.61053 3.86063 1.42143 3.66857 1.24414C3.38195 0.960478 3.0392 0.809784 2.67871 0.809784C2.31823 0.809784 1.96956 0.960478 1.67408 1.24414C1.67113 1.24709 1.67113 1.24709 1.66817 1.25005L0.663542 2.26354C0.285328 2.64176 0.0696282 3.10271 0.0223514 3.63752C-0.0485637 4.50032 0.205549 5.30403 0.400565 5.82998C0.879242 7.12123 1.5943 8.31792 2.66098 9.6003C3.95518 11.1457 5.51236 12.366 7.29115 13.2258C7.97075 13.5479 8.87787 13.9291 9.89137 13.9941C9.95342 13.997 10.0184 14 10.0775 14C10.7601 14 11.3333 13.7547 11.7824 13.2672C11.7854 13.2613 11.7913 13.2583 11.7943 13.2524C11.9479 13.0663 12.1252 12.8979 12.3113 12.7176C12.4384 12.5965 12.5684 12.4694 12.6955 12.3364C12.988 12.0321 13.1416 11.6775 13.1416 11.3141C13.1416 10.9477 12.985 10.5961 12.6866 10.3006L11.0644 8.6725ZM12.1222 11.7839C12.1193 11.7839 12.1193 11.7868 12.1222 11.7839C12.007 11.908 11.8888 12.0203 11.7618 12.1444C11.5697 12.3276 11.3747 12.5196 11.1915 12.7353C10.893 13.0545 10.5414 13.2052 10.0805 13.2052C10.0362 13.2052 9.98888 13.2052 9.94456 13.2022C9.06698 13.1461 8.25146 12.8033 7.63981 12.5108C5.9674 11.7012 4.49887 10.5517 3.27854 9.09503C2.27095 7.88061 1.59726 6.75779 1.15108 5.55223C0.876287 4.81649 0.775824 4.24326 0.820146 3.70253C0.849694 3.35682 0.98266 3.0702 1.22791 2.82495L2.23549 1.81737C2.38028 1.68145 2.53393 1.60758 2.68462 1.60758C2.87077 1.60758 3.02147 1.71986 3.11602 1.81441C3.11898 1.81737 3.12193 1.82032 3.12489 1.82328C3.30513 1.9917 3.47651 2.16604 3.65675 2.35219C3.74835 2.44674 3.8429 2.54129 3.93746 2.6388L4.74411 3.44546C5.05732 3.75867 5.05732 4.04824 4.74411 4.36145C4.65843 4.44714 4.57569 4.53283 4.49 4.61556C4.2418 4.86967 4.00542 5.10606 3.74835 5.33653C3.74244 5.34244 3.73653 5.3454 3.73358 5.35131C3.47946 5.60542 3.52674 5.85362 3.57993 6.02204C3.58288 6.03091 3.58584 6.03977 3.58879 6.04864C3.79858 6.55686 4.09406 7.03554 4.54319 7.60581L4.54614 7.60877C5.36167 8.6134 6.22151 9.39642 7.17 9.99624C7.29115 10.0731 7.41525 10.1351 7.53344 10.1942C7.63981 10.2474 7.74028 10.2976 7.82597 10.3508C7.83779 10.3567 7.84961 10.3656 7.86142 10.3715C7.96189 10.4217 8.05644 10.4454 8.15395 10.4454C8.3992 10.4454 8.55285 10.2917 8.60308 10.2415L9.61362 9.23095C9.71408 9.13049 9.87364 9.00934 10.0598 9.00934C10.243 9.00934 10.3937 9.12458 10.4853 9.22504C10.4882 9.228 10.4882 9.228 10.4912 9.23095L12.1193 10.859C12.4236 11.1604 12.4236 11.4707 12.1222 11.7839Z" fill="#5E6576"/>
<path d="M7.56595 3.3302C8.34011 3.46021 9.04336 3.8266 9.60477 4.38801C10.1662 4.94942 10.5296 5.65266 10.6626 6.42682C10.6951 6.62184 10.8635 6.75776 11.0556 6.75776C11.0792 6.75776 11.0999 6.7548 11.1235 6.75185C11.3422 6.71639 11.487 6.50956 11.4515 6.2909C11.292 5.35423 10.8487 4.50029 10.1721 3.82365C9.49544 3.147 8.6415 2.70378 7.70483 2.54422C7.48618 2.50876 7.28229 2.65355 7.24388 2.86925C7.20547 3.08495 7.3473 3.29474 7.56595 3.3302Z" fill="#5E6576"/>
<path d="M13.9838 6.17569C13.7208 4.63329 12.9939 3.22976 11.877 2.11285C10.7601 0.995938 9.35656 0.269058 7.81416 0.00608141C7.59846 -0.0323309 7.39458 0.115409 7.35617 0.331109C7.32071 0.549764 7.4655 0.753645 7.68415 0.792057C9.06108 1.02549 10.3169 1.6785 11.3156 2.67426C12.3143 3.67298 12.9644 4.92877 13.1978 6.30571C13.2303 6.50072 13.3987 6.63664 13.5908 6.63664C13.6144 6.63664 13.6351 6.63369 13.6587 6.63073C13.8744 6.59823 14.0222 6.3914 13.9838 6.17569Z" fill="#5E6576"/>
</svg>
