<svg width="94" height="94" viewBox="0 0 94 94" fill="none" xmlns="http://www.w3.org/2000/svg">
<path d="M12.2486 18.2697L18.2254 12.1915C21.5148 14.0106 27.0225 18.8718 30.1282 18.8718C31.9155 18.8718 34.1211 17.6232 35.5472 17.0655C37.6514 16.2352 38.7289 15.9183 39.8951 13.9725C40.8141 12.4387 41.562 7.60281 42.031 5.26408C42.2021 4.40845 42.5824 3.0331 42.5824 2H51.424C51.424 3.85704 53.4458 12.8063 54.0352 13.8458C55.0556 15.6394 56.0887 16.1655 58.1676 16.9514C65.3233 19.6514 63.6944 20.2028 72.7958 14.131C73.8099 13.4592 74.7099 12.7873 75.7303 12.2423L81.8085 18.219C79.9895 21.5148 75.1282 27.0162 75.1282 30.1218C75.1282 31.5796 77.4162 37.1317 78.0754 38.019C80.3697 41.0993 83.8493 41.0486 88.7359 42.0247C89.5979 42.1958 90.9669 42.5824 92 42.5824V51.4176C90.143 51.4176 81.1937 53.4394 80.1542 54.0352C78.3606 55.0493 77.8345 56.0824 77.0486 58.1613C74.3486 65.3232 73.7972 63.688 79.869 72.7958C80.5409 73.8035 81.2127 74.7035 81.7578 75.7303L75.781 81.8021C72.4852 79.9831 66.9838 75.1218 63.8782 75.1218C62.0845 75.1218 59.8789 76.3704 58.4528 76.9345C56.7669 77.6 55.2901 78.0627 54.1113 80.0211C53.1923 81.5549 52.4444 86.3908 51.9754 88.7359C51.8042 89.5915 51.424 90.9669 51.424 92H42.5824C42.5824 90.1366 40.5606 81.1873 39.9711 80.1479C38.9507 78.3606 37.9176 77.8345 35.8387 77.0486C28.6831 74.3486 30.312 73.7972 21.2042 79.8627C20.1965 80.5408 19.2965 81.2127 18.2761 81.7514L12.1979 75.7746C12.762 74.7479 13.4465 73.8225 14.0549 72.9162C15.6268 70.5521 18.8782 66.4134 18.8782 63.8718C18.8782 62.0845 17.6296 59.8789 17.0655 58.4528C16.2352 56.3486 15.9246 55.2711 13.9789 54.1049C12.4451 53.1859 7.60916 52.438 5.26408 51.969C4.40845 51.7979 3.0331 51.4176 2 51.4176V42.5824C3.86338 42.5824 12.8127 40.5542 13.8521 39.9648C15.6394 38.9507 16.1655 37.9113 16.9514 35.8324C19.6514 28.6768 20.2028 30.312 14.1373 21.2042C13.4592 20.1901 12.7873 19.2901 12.2486 18.2697Z" stroke="#1ABAC7" stroke-width="8.5039" stroke-miterlimit="22.9256"/>
<path d="M48.9945 29.0495L48.9949 29.0495C53.8566 28.9839 57.7845 32.9899 57.7845 37.819C57.7845 40.9421 56.1212 43.9834 53.4218 45.5638C52.0925 46.3419 50.5943 46.7026 49.0609 46.596L49.0607 46.596C48.3229 46.5449 47.5695 46.2817 46.7405 45.9677C46.6665 45.9397 46.5919 45.9112 46.5166 45.8825C45.7736 45.5992 44.9704 45.293 44.1504 45.1548L44.1492 45.1546C43.9475 45.1211 43.7342 45.0934 43.5173 45.0794C41.4994 44.9398 39.5297 45.4199 37.7909 46.4355C34.3525 48.4435 32.2544 52.2766 32.2544 56.2126C32.2544 62.3478 37.2437 67.4325 43.4521 67.3532C43.4521 67.3532 43.4522 67.3531 43.4523 67.3531L60.8292 67.138C56.7363 70.0786 51.7118 71.8125 46.2741 71.8125C32.5216 71.8125 21.3708 60.699 21.3708 47C21.3708 40.0722 24.2206 33.8064 28.819 29.306L48.9945 29.0495ZM48.2582 48.8832L48.262 48.8838C48.468 48.9169 48.6808 48.9445 48.8978 48.9585C50.9152 49.098 52.8851 48.6182 54.6179 47.6023C58.0632 45.5939 60.1542 41.7605 60.1542 37.819C60.1542 31.6901 55.1649 26.6053 48.9627 26.6848L31.6661 26.9057C35.7684 23.935 40.8141 22.1875 46.2741 22.1875C60.0329 22.1875 71.1773 33.2947 71.1773 47C71.1773 53.9466 68.3151 60.2251 63.6917 64.7318L43.4207 64.9884C43.4206 64.9884 43.4206 64.9884 43.4205 64.9884C38.552 65.048 34.6305 61.0478 34.6305 56.2126C34.6305 53.0956 36.2876 50.0548 38.9862 48.4745C40.3226 47.6958 41.8148 47.3353 43.3542 47.4419C44.092 47.493 44.8437 47.7561 45.671 48.0701C45.7447 48.0981 45.819 48.1265 45.8939 48.1551C46.6357 48.4384 47.4379 48.7449 48.2582 48.8832ZM56.6158 37.819C56.6158 33.617 53.1939 30.2105 48.9755 30.2105C44.7631 30.2105 41.3415 33.6173 41.3415 37.819C41.3415 42.0267 44.7628 45.4338 48.9755 45.4338C53.1942 45.4338 56.6158 42.027 56.6158 37.819ZM35.7992 56.2126C35.7992 60.42 39.2139 63.8274 43.4332 63.8274C47.6519 63.8274 51.0735 60.4206 51.0735 56.2126C51.0735 52.0106 47.6516 48.6041 43.4332 48.6041C39.2141 48.6041 35.7992 52.0112 35.7992 56.2126Z" fill="#1ABAC7" stroke="#1ABAC7"/>
</svg>
