<svg width="235" height="469" viewBox="0 0 235 469" fill="none" xmlns="http://www.w3.org/2000/svg">
<path d="M-168.237 94.9986L-139.217 65.4857C-123.245 74.318 -96.5017 97.9222 -81.4221 97.9222C-72.7437 97.9222 -62.0341 91.8596 -55.1098 89.1514C-44.8926 85.1199 -39.6609 83.5812 -33.9984 74.1334C-29.5361 66.6859 -25.9047 43.2048 -23.6273 31.849C-22.7964 27.6944 -20.9499 21.0163 -20.9499 16.0001H21.9807C21.9807 25.017 31.7978 68.4708 34.6598 73.5179C39.6145 82.2271 44.6308 84.7814 54.7249 88.5974C89.4695 101.707 81.5604 104.385 125.753 74.9027C130.677 71.6406 135.047 68.3785 140.001 65.7319L169.514 94.7524C160.682 110.755 137.078 137.468 137.078 152.547C137.078 159.625 148.188 186.584 151.388 190.892C162.528 205.849 179.424 205.603 203.151 210.342C207.336 211.173 213.984 213.05 219 213.05V255.95C209.983 255.95 166.529 265.767 161.482 268.66C152.773 273.584 150.219 278.6 146.403 288.694C133.293 323.47 130.615 315.53 160.097 359.753C163.359 364.646 166.621 369.016 169.268 374.001L140.248 403.484C124.245 394.651 97.5324 371.047 82.4528 371.047C73.7436 371.047 63.0341 377.11 56.1098 379.849C47.9237 383.08 40.7532 385.327 35.0291 394.836C30.5668 402.283 26.9354 425.764 24.6581 437.151C23.8271 441.306 21.9807 447.984 21.9807 453H-20.9499C-20.9499 443.952 -30.7671 400.498 -33.6291 395.451C-38.5838 386.773 -43.6001 384.219 -53.6942 380.403C-88.4387 367.293 -80.5297 364.615 -124.753 394.067C-129.646 397.359 -134.016 400.622 -138.971 403.237L-168.484 374.217C-165.745 369.231 -162.421 364.738 -159.467 360.338C-151.835 348.859 -136.047 328.763 -136.047 316.422C-136.047 307.744 -142.11 297.034 -144.849 290.11C-148.88 279.893 -150.388 274.661 -159.836 268.998C-167.283 264.536 -190.764 260.905 -202.151 258.627C-206.306 257.796 -212.984 255.95 -218 255.95V213.05C-208.952 213.05 -165.498 203.202 -160.451 200.34C-151.773 195.416 -149.219 190.369 -145.403 180.275C-132.293 145.531 -129.615 153.47 -159.067 109.247C-162.359 104.323 -165.622 99.9533 -168.237 94.9986Z" stroke="#F9FAFA" stroke-width="90" stroke-miterlimit="22.9256"/>
<path d="M9.84259 242.059C19.2444 242.711 28.4274 240.477 36.5175 235.733C52.6272 226.343 62.4439 208.38 62.4439 189.894C62.4439 161.182 39.0687 137.387 10.0555 137.759L-79.7659 138.906C-58.7445 122.095 -32.0693 112.067 -3.02407 112.067C64.8409 112.067 119.823 166.855 119.823 234.473C119.823 269.022 105.47 300.222 82.3388 322.489L-16.8551 323.744C-41.601 324.048 -61.4879 303.725 -61.4879 279.205C-61.4879 263.42 -53.1073 248.004 -39.3822 239.967C-32.5692 235.997 -24.9402 234.151 -17.0683 234.696C-13.1644 234.966 -9.26483 236.35 -5.2683 237.867C-4.91307 238.002 -4.55704 238.137 -4.20023 238.274C-0.567284 239.66 3.14713 241.078 6.93053 241.716L6.9343 241.717C7.8978 241.871 8.86812 241.996 9.84259 242.059ZM9.84259 242.059L9.87715 241.56M9.84259 242.059C9.84341 242.059 9.84424 242.059 9.84506 242.059L9.87715 241.56M9.87715 241.56C19.1759 242.205 28.2591 239.996 36.2646 235.302L7.01364 241.223C7.96814 241.376 8.92265 241.499 9.87715 241.56ZM10.1606 145.386L10.161 145.386C34.8755 145.052 54.7932 165.405 54.7932 189.894C54.7932 205.71 46.3818 221.127 32.6558 229.163C25.8744 233.133 18.215 234.98 10.3737 234.435C6.46951 234.164 2.56216 232.78 -1.44212 231.263C-1.79913 231.128 -2.15694 230.992 -2.51554 230.855C-6.15436 229.469 -9.87395 228.052 -13.6561 227.414L-13.6572 227.414C-14.5926 227.259 -15.5639 227.134 -16.5389 227.071C-25.9403 226.42 -35.1225 228.654 -43.2423 233.397C-59.321 242.787 -69.1694 260.75 -69.1694 279.205C-69.1694 307.948 -45.7943 331.743 -16.7502 331.371L73.4945 330.254C52.5067 346.913 25.9257 356.879 -3.02407 356.879C-70.8582 356.879 -125.871 302.061 -125.871 234.473C-125.871 200.017 -111.579 168.877 -88.5711 146.641L10.1606 145.386ZM45.2628 189.894C45.2628 170.564 29.5186 154.879 10.0927 154.879C-9.30267 154.879 -25.0466 170.564 -25.0466 189.894C-25.0466 209.255 -9.30296 224.941 10.0927 224.941C29.5188 224.941 45.2628 209.255 45.2628 189.894ZM-51.9575 279.205C-51.9575 298.566 -36.2449 314.252 -16.8182 314.252C2.60794 314.252 18.3519 298.566 18.3519 279.205C18.3519 259.875 2.60765 244.19 -16.8182 244.19C-36.2447 244.19 -51.9575 259.875 -51.9575 279.205Z" fill="#F9FAFA" stroke="#F9FAFA"/>
</svg>
