<svg width="60" height="60" viewBox="0 0 60 60" fill="none" xmlns="http://www.w3.org/2000/svg">
<path d="M55.2451 23.0292C55.0124 17.2692 52.6461 11.8728 48.5195 7.74614C44.1692 3.39586 38.4079 1 32.2969 1H27.7031C23.3241 1 19.058 2.25103 15.3663 4.61802C14.8578 4.94406 14.7098 5.62066 15.0359 6.12914C15.3619 6.63762 16.0385 6.78561 16.547 6.45956C17.012 6.16141 17.4874 5.88359 17.9715 5.62492C18.4421 5.92177 18.7476 6.44852 18.7476 7.0153V9.74967C18.7476 11.8605 20.4649 13.5778 22.5757 13.5778H26.8351C26.8094 13.7566 26.7954 13.9391 26.7954 14.1248C26.7954 16.2355 28.5127 17.9528 30.6235 17.9529L36.0817 17.9531C36.9774 17.9619 37.7061 18.6979 37.7061 19.5936V21.2343C37.7061 21.8211 37.8395 22.3773 38.0769 22.8749H26.1616C24.4307 22.8749 22.9653 24.0298 22.4935 25.6093H19.052C16.9412 25.6093 15.2239 27.3266 15.2239 29.4374V29.9843C15.2239 30.8889 14.4879 31.6249 13.5833 31.6249H6.92188V30.5311H7.43069C9.54152 30.5311 11.2588 28.8138 11.2588 26.703C11.2588 25.7984 11.9948 25.0624 12.8994 25.0624H13.4464C15.5573 25.0624 17.2745 23.3451 17.2745 21.2343C17.2745 19.1234 15.5573 17.4061 13.4464 17.4061H7.99342C8.49206 15.9193 9.16034 14.4864 9.99127 13.1365C10.3079 12.622 10.1476 11.9483 9.63317 11.6317C9.11878 11.3152 8.44503 11.4753 8.12839 11.9898C6.94266 13.9161 6.05573 15.9952 5.48633 18.1585C5.47145 18.2039 5.45953 18.2505 5.45056 18.2982C4.97763 20.1425 4.73438 22.0465 4.73438 23.9688V36.7984C3.155 37.2703 2 38.7357 2 40.4665C2 42.5774 3.7173 44.2947 5.82812 44.2947H12.3978C16.8458 44.2947 21.0411 42.6539 24.2949 39.6603V44.75C23.6908 44.75 23.2011 45.2397 23.2011 45.8438C23.2011 46.4478 23.6908 46.9375 24.2949 46.9375V50.2188C24.2949 50.8228 24.7846 51.3125 25.3886 51.3125H30.8574C31.4615 51.3125 31.9511 50.8228 31.9511 50.2188V46.9374C32.5552 46.9374 33.0449 46.4477 33.0449 45.8436C33.0449 45.2396 32.5552 44.7499 31.9511 44.7499V30.5312H54.1719C56.2827 30.5312 58 28.814 58 26.7031C58 24.9648 56.8349 23.4945 55.2451 23.0292ZM52.3464 18.4999H48.1233C47.2187 18.4999 46.4827 17.7639 46.4827 16.8593V14.1249C46.4827 12.0141 44.7654 10.2968 42.6546 10.2968H36.2078C36.2336 10.117 36.2474 9.93441 36.2474 9.74978C36.2474 7.63895 34.5301 5.92166 32.4193 5.92166H31.8723C30.9676 5.92166 30.2317 5.18567 30.2317 4.28639L30.2371 3.1875H32.2969C41.8635 3.1875 49.9396 9.68591 52.3464 18.4999ZM20.935 9.74967V7.0153C20.935 6.1263 20.6313 5.29516 20.1067 4.63508C22.514 3.68209 25.0862 3.1875 27.7031 3.1875H28.0496L28.0443 4.28092C28.0443 6.39175 29.7616 8.10905 31.8724 8.10905H32.4194C33.324 8.10905 34.06 8.84503 34.06 9.74967C34.06 9.93856 34.027 10.1225 33.9645 10.2967H30.6234C29.5831 10.2967 28.6387 10.7144 27.9481 11.3903H22.5757C21.6709 11.3903 20.935 10.6543 20.935 9.74967ZM13.583 33.8125C15.6939 33.8125 17.4112 32.0952 17.4112 29.9844V29.4375C17.4112 28.5329 18.1471 27.7969 19.0518 27.7969H22.272C22.0282 30.0371 21.0395 32.1125 19.4233 33.7286C17.547 35.6049 15.0519 36.6384 12.3978 36.6384H6.92188V33.8125H13.583ZM13.4464 19.5938C14.3511 19.5938 15.087 20.3297 15.087 21.2344C15.087 22.139 14.3511 22.875 13.4464 22.875H12.8994C10.7886 22.875 9.07131 24.5923 9.07131 26.7031C9.07131 27.6078 8.33533 28.3438 7.43069 28.3438H6.92188V23.9688C6.92188 22.4908 7.08112 21.0248 7.39153 19.5938H13.4464ZM29.7636 49.125H26.4824V46.9374H29.7636V49.125ZM29.7636 44.7499H26.4824V37.248C27.9808 35.2547 29.0304 32.9774 29.5717 30.5312H29.7636V44.7499ZM54.1719 28.3438H28.67C28.1354 28.3438 27.6791 28.7302 27.5911 29.2575C27.1665 31.8028 26.1224 34.1626 24.5447 36.1771L24.5446 36.1772C24.1577 36.6711 23.7399 37.145 23.29 37.595C20.3804 40.5046 16.5122 42.107 12.398 42.107H5.82812C4.92348 42.107 4.1875 41.371 4.1875 40.4663C4.1875 39.5617 4.92348 38.8257 5.82812 38.8257H12.3978C15.6362 38.8257 18.6807 37.5648 20.9701 35.2753C23.2598 32.9857 24.5206 29.9414 24.5206 26.703C24.5206 25.7984 25.2566 25.0624 26.1613 25.0624H42.1406C42.7447 25.0624 43.2344 24.5727 43.2344 23.9686C43.2344 23.3646 42.7447 22.8749 42.1406 22.8749H41.5412C40.6326 22.8749 39.8934 22.1389 39.8934 21.2343V19.5936C39.8934 17.5035 38.1931 15.7862 36.0923 15.7657L30.6235 15.7654C29.7189 15.7654 28.9828 15.0294 28.9828 14.1248C28.9828 13.2201 29.7188 12.4842 30.6234 12.4842H34.6009H34.6022H34.6032H42.6547C43.5593 12.4842 44.2953 13.2201 44.2953 14.1248V16.8592C44.2953 18.97 46.0126 20.6873 48.1234 20.6873H52.8182C52.9327 21.4051 53.0109 22.1349 53.0495 22.8749H51.9844C51.3803 22.8749 50.8906 23.3646 50.8906 23.9686C50.8906 24.5727 51.3803 25.0624 51.9844 25.0624H54.1719C55.0765 25.0624 55.8125 25.7984 55.8125 26.703C55.8125 27.6078 55.0765 28.3438 54.1719 28.3438Z" fill="#1ABAC7"/>
<path d="M12.1153 9.75277C12.4127 9.75277 12.7091 9.63213 12.9249 9.39478L12.9255 9.39424C13.3318 8.94733 13.2985 8.25586 12.8516 7.84953C12.4047 7.4432 11.7127 7.47634 11.3064 7.92336C10.9001 8.37027 10.933 9.06207 11.38 9.46839C11.5896 9.65882 11.8528 9.75277 12.1153 9.75277Z" fill="#1ABAC7"/>
<path d="M47.0628 22.875H47.0621C46.458 22.875 45.9688 23.3647 45.9688 23.9688C45.9688 24.5728 46.4587 25.0625 47.0628 25.0625C47.6669 25.0625 48.1566 24.5728 48.1566 23.9688C48.1566 23.3647 47.6669 22.875 47.0628 22.875Z" fill="#1ABAC7"/>
</svg>
