<svg width="60" height="60" viewBox="0 0 60 60" fill="none" xmlns="http://www.w3.org/2000/svg">
<g clip-path="url(#clip0)">
<path d="M47.7921 36.8386C47.7921 37.4114 48.2564 37.8751 48.8286 37.8751C49.4008 37.8751 49.8645 37.4114 49.8645 36.8386V36.4634C49.8645 35.1893 49.1558 34.1117 48.1365 33.3546C47.1175 32.5976 45.7837 32.157 44.5209 32.157H40.4881C39.9159 32.157 39.4522 32.6208 39.4522 33.1935C39.4522 33.7663 39.9159 34.2294 40.4881 34.2294H44.5209C45.3484 34.2294 46.1689 34.5088 46.7817 34.9302C47.3963 35.3528 47.7921 35.9106 47.7921 36.4634V36.8386Z" fill="#1ABAC7" stroke="#1ABAC7" stroke-width="0.1"/>
<path d="M43.8509 24.7254C43.8035 25.2959 44.2281 25.7957 44.799 25.8431C44.828 25.8455 44.8567 25.8461 44.8844 25.8461C45.4186 25.8461 45.8717 25.4364 45.9162 24.895L45.9162 24.895L46.4128 18.7943L46.413 18.7944V18.7903C46.413 14.1992 42.8807 10.459 38.5321 10.459H33.4817C29.1333 10.459 25.6013 14.1995 25.6047 18.871H25.6046L25.6049 18.8751L26.0976 24.895L26.0976 24.895C26.145 25.466 26.6477 25.89 27.2148 25.8431L27.2148 25.8431L43.8509 24.7254M43.8509 24.7254C43.8509 24.7254 43.8509 24.7254 43.8509 24.7254M43.8509 24.7254L43.8509 24.7254M43.8509 24.7254L44.344 18.7076M43.8509 24.7254L44.344 18.7076M44.344 18.7076C44.339 15.335 41.7311 12.5314 38.5326 12.5314H33.4817C30.283 12.5314 27.6748 15.3346 27.6738 18.7882L28.1629 24.7254L28.1629 24.7254L28.113 24.7295L44.344 18.7076Z" fill="#1ABAC7" stroke="#1ABAC7" stroke-width="0.1"/>
<path d="M31.9309 33.3566L31.9309 33.3566C31.7482 33.8992 32.0406 34.4874 32.5831 34.6695C33.6489 35.0274 34.8327 35.2161 36.0072 35.2161C38.863 35.2161 41.4617 34.1591 42.9531 32.381C44.7548 30.2327 45.9192 27.2469 45.9192 24.7685V20.7938C45.9192 19.6245 45.5536 18.7387 44.8236 18.1713C44.0557 17.5737 43.0407 17.44 41.8638 17.5441C40.6904 17.6479 39.3458 17.9893 37.9081 18.3543L37.895 18.3576L37.9073 18.406L37.895 18.3576L37.8874 18.3595C36.1011 18.8131 34.2632 19.2799 32.7362 19.2799C30.848 19.2799 29.6927 18.5522 28.9236 18.0669L28.9235 18.0668L28.9095 18.058C28.6245 17.8792 28.3141 17.6844 27.9879 17.5823C27.654 17.4778 27.3006 17.4696 26.938 17.6727C26.531 17.8973 26.3204 18.2626 26.2116 18.7773C26.1033 19.2893 26.094 19.9566 26.094 20.7938V24.7685C26.094 26.5741 26.7163 28.6871 27.7988 30.5673C28.0846 31.0642 28.7179 31.2344 29.2142 30.948C29.7099 30.6628 29.8807 30.0295 29.5949 29.5332L29.5516 29.5581L29.5949 29.5332C28.6997 27.979 28.167 26.1969 28.167 24.7685V20.7938C28.167 20.4939 28.17 20.2466 28.1753 20.0422C29.0811 20.5912 30.5635 21.3523 32.7362 21.3523C34.5235 21.3523 36.4934 20.8521 38.3924 20.3698L38.4055 20.3665L38.408 20.3659C39.4497 20.1015 40.5575 19.8204 41.4977 19.6772C41.9681 19.6056 42.3945 19.5689 42.7482 19.5856C43.1035 19.6023 43.3777 19.6727 43.5511 19.8078L43.5513 19.8079C43.7401 19.9539 43.8468 20.2776 43.8468 20.7938V24.7685C43.8468 26.7527 42.8505 29.279 41.3657 31.0492C40.2843 32.3376 38.2322 33.1437 36.0066 33.1437C35.0535 33.1437 34.0978 32.991 33.2425 32.7038L33.2423 32.7038C32.7006 32.5242 32.1135 32.8146 31.9309 33.3566Z" fill="#1ABAC7" stroke="#1ABAC7" stroke-width="0.1"/>
<path d="M43.9975 46.623L43.9975 46.623C43.8724 46.0645 44.224 45.51 44.7826 45.3855L43.9975 46.623ZM43.9975 46.623C44.1055 47.1046 44.5336 47.4324 45.0074 47.4324C45.0827 47.4324 45.1591 47.4241 45.2348 47.4076L45.235 47.4075L56.8934 44.7965C57.8145 44.6343 58.618 44.1242 59.1548 43.3586C59.6923 42.5932 59.8996 41.6643 59.7376 40.7427C59.5235 39.5203 58.6666 38.4928 57.5021 38.0616C56.9679 37.8599 56.3699 38.1366 56.1708 38.6729L56.1708 38.6729C55.9715 39.2101 56.2455 39.8061 56.7827 40.0047C57.2582 40.1814 57.6089 40.6014 57.6961 41.1008L57.6961 41.1008C57.7621 41.4771 57.6776 41.8559 57.4583 42.1685C57.2395 42.4803 56.9117 42.6896 56.4894 42.7642L56.4894 42.7642L56.4872 42.7646L44.7826 45.3855L43.9975 46.623Z" fill="#1ABAC7" stroke="#1ABAC7" stroke-width="0.1"/>
<path d="M15.0708 50.9722L15.0708 50.9722C14.5123 50.8477 14.1594 50.294 14.284 49.7359C14.408 49.177 14.9608 48.8288 15.5194 48.9484L15.5197 48.9485L24.2855 50.8966H31.6639C35.5014 50.8966 39.2658 49.576 42.2631 47.1785L15.0708 50.9722ZM15.0708 50.9722L23.9468 52.9446L15.0708 50.9722ZM57.1037 37.6469L57.1039 37.6468C57.4557 37.4979 57.7277 37.2205 57.8711 36.867C58.0145 36.5125 58.0107 36.1234 57.8618 35.7727L57.9079 35.7531L57.8618 35.7727C57.5538 35.0464 56.7129 34.7067 55.9877 35.0147L55.9873 35.0149L41.3334 41.0563C41.2081 41.1079 41.0735 41.134 40.9384 41.134H22.1992C21.8257 41.134 21.4812 40.9336 21.2973 40.6086L21.2973 40.6086C21.1135 40.2831 21.1188 39.8841 21.311 39.5644L57.1037 37.6469ZM57.1037 37.6469C57.0501 37.6699 56.9978 37.6971 56.9478 37.7299C56.9477 37.7299 56.9477 37.73 56.9476 37.73L42.35 47.1165M57.1037 37.6469L42.35 47.1165M42.35 47.1165C42.3209 47.1352 42.2917 47.1554 42.2634 47.1783L42.35 47.1165ZM24.2699 34.6331L21.311 39.5644L23.9469 52.9446C24.0213 52.9613 24.0966 52.969 24.1716 52.969H31.6639C35.9527 52.969 40.1588 51.4995 43.5162 48.8315L58.0019 39.5173C58.8201 39.1438 59.4544 38.4819 59.7929 37.6438C60.1438 36.776 60.1352 35.8243 59.77 34.9633C59.016 33.1864 56.957 32.3515 55.1883 33.1031C55.1881 33.1031 55.188 33.1032 55.1879 33.1032L40.7333 39.0622H24.0297L25.7451 36.2033H29.1029C32.3936 36.2033 35.0707 33.5262 35.0707 30.2355C35.0707 29.6627 34.6064 29.199 34.0342 29.199H22.1992C21.9787 29.199 21.764 29.269 21.5866 29.3995L7.87189 39.4567L7.87184 39.4568C7.41057 39.7959 7.31093 40.4445 7.64892 40.9059L7.64903 40.906C7.98806 41.3654 8.63491 41.4675 9.0975 41.1289L9.09753 41.1288L22.5384 31.2714H32.8585C32.4036 32.9186 30.8922 34.1303 29.1035 34.1303H25.1581C24.794 34.1303 24.4566 34.3218 24.2699 34.6331Z" fill="#1ABAC7" stroke="#1ABAC7" stroke-width="0.1"/>
<path d="M0.0129793 43.922L-0.0363606 43.9139C-0.0808421 44.1849 -0.0150319 44.4636 0.146293 44.6861C0.146303 44.6861 0.146314 44.6861 0.146325 44.6861L9.83047 58.1203L9.83051 58.1204C9.99119 58.3427 10.2337 58.4927 10.5052 58.5372L10.5053 58.5372C10.5606 58.5461 10.6163 58.5502 10.6713 58.5502C10.8871 58.5502 11.0999 58.4827 11.2772 58.3552L11.2773 58.3551L17.677 53.7404L17.677 53.7404C18.1413 53.4054 18.2463 52.7579 17.9112 52.2936C17.9112 52.2936 17.9112 52.2936 17.9112 52.2936L8.22701 38.8604L8.227 38.8604C7.89239 38.3965 7.24553 38.2949 6.78047 38.6254L6.7802 38.6256L0.380478 43.2392L0.380411 43.2392C0.157549 43.4005 0.00751126 43.6429 -0.0363778 43.914L0.0129793 43.922ZM0.0129793 43.922C0.0547411 43.6641 0.197522 43.4333 0.409717 43.2797L0.186799 44.6568C0.0332959 44.4451 -0.0293469 44.1799 0.0129793 43.922ZM10.9061 56.067L2.43329 44.3148L7.15197 40.9127L15.6248 52.6648L10.9061 56.067Z" fill="#1ABAC7" stroke="#1ABAC7" stroke-width="0.1"/>
<path d="M11.3502 53.9553C12.467 53.9553 13.3726 53.0497 13.3726 51.9329C13.3726 50.8156 12.467 49.91 11.3502 49.91C10.2334 49.91 9.32778 50.8156 9.32778 51.9329C9.32778 53.0497 10.2334 53.9553 11.3502 53.9553Z" fill="#1ABAC7" stroke="#1ABAC7" stroke-width="0.1"/>
<path d="M34.9707 6.56434C34.9707 7.13715 35.4344 7.60026 36.0071 7.60026C36.5793 7.60026 37.0431 7.13713 37.0431 6.56434V2.61897C37.0431 2.04618 36.5793 1.58306 36.0071 1.58306C35.4344 1.58306 34.9707 2.04616 34.9707 2.61897V6.56434Z" fill="#1ABAC7" stroke="#1ABAC7" stroke-width="0.1"/>
<path d="M39.255 7.26127L39.2197 7.29665C38.8146 6.89222 38.8147 6.23637 39.2196 5.83141C39.2196 5.83141 39.2196 5.83141 39.2196 5.83141L42.6712 2.37929L42.6712 2.37926C43.0762 1.9749 43.732 1.97486 44.1364 2.37929C44.5414 2.78426 44.5414 3.44009 44.1364 3.84507L40.6849 7.29662C40.4821 7.49939 40.2175 7.60022 39.952 7.60022C39.687 7.60022 39.4218 7.4994 39.2196 7.29657L39.255 7.26127ZM39.255 7.26127C38.8695 6.87638 38.8695 6.25221 39.255 5.86676V7.26127Z" fill="#1ABAC7" stroke="#1ABAC7" stroke-width="0.1"/>
<path d="M29.8358 2.87242L29.8358 2.87245L32.7947 5.83133L32.7947 5.83136C33.1991 6.23631 33.1991 6.89212 32.7947 7.29655C32.5919 7.49932 32.3268 7.60014 32.0618 7.60014C31.7969 7.60014 31.5317 7.49934 31.3295 7.29655L29.8358 2.87242ZM29.8358 2.87242C29.4308 2.46806 28.775 2.46802 28.3706 2.87245C27.9656 3.27741 27.9656 3.93326 28.3706 4.33769L31.3294 7.29649L29.8358 2.87242Z" fill="#1ABAC7" stroke="#1ABAC7" stroke-width="0.1"/>
<rect x="25" y="38" width="4" height="4" fill="white"/>
<rect x="31" y="38" width="4" height="4" fill="white"/>
</g>
<defs>
<clipPath id="clip0">
<rect width="60" height="60" fill="white"/>
</clipPath>
</defs>
</svg>
