<svg width="176" height="44" viewBox="0 0 176 44" fill="none" xmlns="http://www.w3.org/2000/svg">
<path d="M6.13628 9.22795L8.73862 6.52578C10.1709 7.33446 12.569 9.49563 13.9212 9.49563C14.6994 9.49563 15.6598 8.94055 16.2807 8.69259C17.1969 8.32347 17.666 8.18259 18.1738 7.31755C18.574 6.63567 18.8996 4.48577 19.1038 3.44605C19.1783 3.06566 19.3439 2.45422 19.3439 1.99494H23.1936C23.1936 2.82052 24.0739 6.7991 24.3306 7.2612C24.7749 8.05861 25.2247 8.29248 26.1298 8.64187C29.2455 9.84221 28.5362 10.0873 32.4991 7.388C32.9406 7.08932 33.3325 6.79065 33.7768 6.54832L36.4233 9.20541C35.6313 10.6706 33.5146 13.1164 33.5146 14.497C33.5146 15.1451 34.5109 17.6134 34.7979 18.0079C35.7968 19.3773 37.3119 19.3547 39.4396 19.7887C39.8149 19.8647 40.411 20.0366 40.8608 20.0366V23.9645C40.0522 23.9645 36.1556 24.8633 35.703 25.1282C34.922 25.579 34.693 26.0383 34.3508 26.9625C33.1752 30.1465 32.9351 29.4195 35.5788 33.4686C35.8714 33.9166 36.1639 34.3167 36.4012 34.7731L33.7989 37.4725C32.3639 36.6638 29.9685 34.5027 28.6163 34.5027C27.8353 34.5027 26.8749 35.0577 26.254 35.3085C25.52 35.6044 24.877 35.8101 24.3637 36.6807C23.9635 37.3626 23.6379 39.5125 23.4337 40.5551C23.3592 40.9354 23.1936 41.5469 23.1936 42.0062H19.3439C19.3439 41.1778 18.4636 37.1992 18.2069 36.7371C17.7626 35.9425 17.3128 35.7086 16.4076 35.3592C13.292 34.1589 14.0012 33.9138 10.0356 36.6103C9.59686 36.9118 9.20499 37.2105 8.76069 37.45L6.1142 34.7929C6.35981 34.3364 6.65785 33.925 6.92278 33.5221C7.60717 32.4711 9.02286 30.6311 9.02286 29.5012C9.02286 28.7067 8.47921 27.7261 8.2336 27.0921C7.87209 26.1566 7.73687 25.6776 6.88966 25.1592C6.22183 24.7506 4.11623 24.4181 3.09516 24.2096C2.72261 24.1335 2.12377 23.9645 1.67395 23.9645V20.0366C2.48528 20.0366 6.38189 19.135 6.83447 18.8729C7.61269 18.4221 7.84173 17.96 8.18393 17.0358C9.35953 13.8546 9.59962 14.5816 6.95865 10.5325C6.66337 10.0817 6.37085 9.6816 6.13628 9.22795Z" stroke="#1ABAC7" stroke-width="8.5039" stroke-miterlimit="22.9256"/>
<path d="M22.3894 23.1503C23.3281 23.2167 24.2434 22.9874 25.0456 22.5055C26.6362 21.5553 27.5902 19.752 27.5902 17.9064C27.5902 15.0347 25.3057 12.6266 22.4337 12.6643C22.4337 12.6643 22.4337 12.6643 22.4337 12.6643L15.8338 12.7507C17.421 11.7733 19.2795 11.2129 21.2674 11.2129C27.0886 11.2129 31.8225 16.0313 31.8225 22.0005C31.8225 24.9828 30.6401 27.6796 28.7264 29.6323L20.59 29.7378C22.3239 29.4639 23.6384 27.9358 23.6384 26.1087C23.6384 24.8808 23.0431 23.7874 22.1254 23.1201C22.2091 23.1331 22.2977 23.1442 22.3894 23.1503ZM22.3894 23.1503C22.389 23.1502 22.3887 23.1502 22.3883 23.1502L22.4237 22.6514L22.3908 23.1503C22.3903 23.1503 22.3899 23.1503 22.3894 23.1503ZM24.902 20.594C24.7011 20.7976 24.4763 20.9764 24.2307 21.1237C23.8415 21.3572 23.418 21.4977 22.9802 21.5388C23.7189 21.4269 24.3824 21.0874 24.902 20.594ZM20.3514 20.8981C20.268 20.8849 20.1791 20.8738 20.0875 20.8677C19.1484 20.8013 18.2332 21.0308 17.4286 21.5123C15.8413 22.4622 14.8838 24.2651 14.8838 26.1087C14.8838 28.9832 17.1682 31.3913 20.0429 31.3537C20.043 31.3537 20.0431 31.3537 20.0431 31.3537L26.6719 31.2696C25.0911 32.2342 23.2435 32.7882 21.2674 32.7882C15.449 32.7882 10.7123 27.967 10.7123 22.0005C10.7123 19.0266 11.8893 16.3355 13.7924 14.3857L21.8844 14.2803C20.1527 14.5543 18.8384 16.082 18.8384 17.9064C18.8384 19.1361 19.4339 20.2305 20.3514 20.8981ZM17.5632 23.4333C17.7661 23.226 17.9937 23.0441 18.2429 22.8945C18.6333 22.6615 19.0547 22.5211 19.4914 22.4795C18.7491 22.5926 18.0832 22.9355 17.5632 23.4333Z" fill="#1ABAC7" stroke="#1ABAC7"/>
<path d="M48.4577 30.982L48.4571 30.9851C48.4271 31.1521 48.3723 31.2751 48.2829 31.3764C48.3055 31.3112 48.3227 31.2438 48.3349 31.1753L48.3351 31.1753L48.3369 31.163C48.377 30.9001 48.3443 30.5745 48.0816 30.3353C47.8495 30.1241 47.5397 30.0804 47.2852 30.0804C47.2559 30.0804 47.2269 30.0808 47.1982 30.0816C47.2844 30.0751 47.3759 30.0717 47.4728 30.0717C47.9422 30.0717 48.2008 30.1991 48.3268 30.3301C48.4414 30.4492 48.5199 30.6476 48.4577 30.982ZM47.3772 32.0816C47.3991 32.0794 47.421 32.0765 47.4428 32.0731L47.5005 32.1081C47.4595 32.0967 47.4183 32.088 47.3772 32.0816ZM47.9459 32.3995C47.9344 32.3847 47.9226 32.3705 47.9105 32.3569L48.0275 32.428C48.182 32.5217 48.2353 32.6122 48.2601 32.691C48.29 32.7863 48.2946 32.9206 48.2587 33.1166L48.2587 33.1166L48.2582 33.1192C48.1944 33.4793 48.0499 33.7134 47.8394 33.8673C47.6186 34.0287 47.2644 34.1464 46.7029 34.1464C46.1917 34.1464 45.8495 34.052 45.6354 33.9213C45.4867 33.8305 45.3849 33.7139 45.3247 33.5615L45.4736 33.5101C45.5601 33.6851 45.6962 33.8363 45.8909 33.9457C46.1525 34.0926 46.4745 34.1376 46.8161 34.1376C47.1293 34.1376 47.4301 34.0773 47.6745 33.9018C47.9307 33.7178 48.0559 33.4574 48.1069 33.1991L48.1089 33.1887L48.1105 33.1783C48.146 32.9479 48.1395 32.6479 47.9459 32.3995Z" fill="#1ABAC7" stroke="#1ABAC7"/>
<path d="M51.9275 31.6168C51.8754 31.527 51.8033 31.4611 51.724 31.417C51.8687 31.4408 51.9848 31.4714 52.0682 31.5006L52.0005 31.8955C52.0014 31.809 51.9825 31.7116 51.9275 31.6168ZM49.9329 33.9515C50.0114 34.03 50.0998 34.0866 50.1915 34.1269C49.9687 34.0886 49.8527 34.0002 49.7908 33.9188C49.7028 33.8032 49.6383 33.5896 49.6967 33.2375C49.6767 33.4738 49.7231 33.7418 49.9329 33.9515Z" fill="#1ABAC7" stroke="#1ABAC7"/>
<path d="M55.5979 31.9936C55.5954 31.7909 55.5141 31.5996 55.3588 31.4579C55.4379 31.489 55.4941 31.5247 55.5318 31.5583C55.606 31.6244 55.6547 31.7203 55.6234 31.9012L55.6232 31.9023C55.6169 31.9391 55.6083 31.9688 55.5979 31.9936ZM53.2782 34.0548L53.3304 33.7534C53.3304 33.7538 53.3304 33.7542 53.3304 33.7546C53.3304 33.874 53.3729 33.996 53.4588 34.0926C53.391 34.0814 53.3309 34.0687 53.2782 34.0548ZM55.541 33.4375C55.5167 33.6083 55.4637 33.7305 55.3873 33.8223C55.4368 33.7376 55.472 33.6436 55.4918 33.5421L55.4935 33.5334L55.4949 33.5246C55.5107 33.4254 55.5112 33.3144 55.4821 33.2011C55.495 33.2139 55.5052 33.2271 55.5131 33.2399C55.5353 33.2759 55.556 33.3358 55.5414 33.435L55.541 33.4375ZM54.2984 33.9279C54.2989 33.9267 54.2993 33.9254 54.2999 33.9241C54.2993 33.9256 54.2988 33.9269 54.2984 33.9279Z" fill="#1ABAC7" stroke="#1ABAC7"/>
<path d="M56.9951 33.2577L56.9955 33.2558L57.0005 33.2256C56.9778 33.4598 57.0223 33.7251 57.2237 33.9376C57.285 34.0023 57.353 34.0535 57.4248 34.0937C57.2648 34.0481 57.1656 33.9792 57.1063 33.9127C57.0097 33.8044 56.9348 33.6076 56.9951 33.2577ZM59.1202 31.5786C59.0589 31.515 58.9912 31.4649 58.92 31.4257C59.0839 31.4723 59.1831 31.5436 59.2419 31.6115C59.3397 31.7247 59.4131 31.9303 59.3538 32.2879L59.3538 32.2881L59.2082 33.1689C59.1961 33.235 59.1812 33.2968 59.1637 33.3544C59.1676 33.3372 59.1711 33.32 59.1742 33.3027L59.1743 33.3027L59.1749 33.2993L59.3349 32.3948L59.335 32.3948L59.3359 32.3889C59.3772 32.1382 59.3555 31.8229 59.1202 31.5786Z" fill="#1ABAC7" stroke="#1ABAC7"/>
<path d="M61.4696 29.9428C61.4696 29.9427 61.4711 29.9425 61.4744 29.9423C61.4714 29.9428 61.4697 29.9428 61.4696 29.9428ZM62.5661 30.0532C62.5539 30.0468 62.5417 30.0407 62.5293 30.0347C62.6144 30.0563 62.686 30.0815 62.7441 30.1102L62.7443 30.1103C62.9262 30.2 63.0385 30.3238 63.1042 30.5276C62.9549 30.2669 62.7302 30.1342 62.5661 30.0532ZM62.9657 32.5005L62.9743 32.5113L62.8619 33.1607L62.8618 33.1612C62.8527 33.214 62.8418 33.264 62.8291 33.3113C62.8297 33.3085 62.8302 33.3056 62.8308 33.3027L62.8308 33.3027L62.8316 33.2978L62.9531 32.599L62.9531 32.599L62.9538 32.5946C62.9588 32.564 62.9629 32.5326 62.9657 32.5005ZM60.8811 33.9338C60.9429 34.0003 61.0117 34.0527 61.0844 34.0937C60.9198 34.0475 60.8193 33.9775 60.7599 33.9108C60.6637 33.8028 60.5899 33.6069 60.6486 33.2596L60.7777 32.5557L60.7777 32.5557L60.7792 32.547C60.7825 32.5271 60.7861 32.5075 60.79 32.4883L60.6795 33.1244C60.6341 33.3738 60.6524 33.6873 60.8811 33.9338Z" fill="#1ABAC7" stroke="#1ABAC7"/>
<path d="M67.5713 30.0804C67.5493 30.0804 67.5274 30.0807 67.5057 30.0814C67.5824 30.075 67.6622 30.0717 67.7452 30.0717C68.2784 30.0717 68.5737 30.2345 68.7284 30.4243C68.8865 30.6184 68.9778 30.939 68.8969 31.4153L68.8969 31.4154L68.6627 32.797C68.5787 33.2699 68.3862 33.5913 68.1236 33.7994C67.9615 33.9277 67.7533 34.0283 67.4905 34.0874C67.6918 34.0393 67.8803 33.9549 68.0457 33.8261C68.3341 33.6017 68.501 33.2822 68.5656 32.9231L68.5657 32.9232L68.567 32.9151L68.6084 32.6615L68.7032 32.081H68.1149H67.0663L67.0672 32.0751H68.2888H68.7128L68.7821 31.6567L68.8149 31.4585C68.8149 31.4582 68.815 31.4578 68.8151 31.4575C68.8743 31.1067 68.8303 30.7251 68.5558 30.4372C68.2936 30.1622 67.9209 30.0804 67.5713 30.0804ZM67.0414 34.1376C67.1183 34.1376 67.1945 34.1337 67.2695 34.1254C67.1586 34.1391 67.0395 34.1464 66.9117 34.1464C66.4784 34.1464 66.1889 34.056 66.0069 33.9334C65.8759 33.8451 65.7787 33.7259 65.7203 33.5618L65.8716 33.5095C65.952 33.6756 66.0738 33.8194 66.239 33.9278C66.4777 34.0844 66.7616 34.1376 67.0414 34.1376ZM66.903 32.0756C66.9008 32.0759 66.8996 32.076 66.8995 32.0759C66.8995 32.0759 66.9006 32.0757 66.903 32.0756ZM65.9461 30.6104C65.9418 30.6086 65.94 30.6076 65.9401 30.6076C65.9403 30.6076 65.9424 30.6084 65.9461 30.6104Z" fill="#1ABAC7" stroke="#1ABAC7"/>
<path d="M70.4008 32.1912L70.3191 32.6783H70.3127L70.5183 31.4777H70.5204L70.4008 32.1912ZM70.2631 34.0412C70.2632 34.0413 70.2616 34.0415 70.2582 34.0417C70.2613 34.0412 70.2631 34.0411 70.2631 34.0412ZM71.7922 33.2149C71.7634 33.1419 71.724 33.0658 71.6688 32.9942L71.7142 33.0173C71.7143 33.0175 71.7144 33.0177 71.7146 33.018C71.7271 33.0373 71.7481 33.0798 71.7811 33.179L71.7922 33.2149ZM72.012 34.0421L71.8429 33.3781L72.049 34.0421H72.012Z" fill="#1ABAC7" stroke="#1ABAC7"/>
<path d="M73.7695 32.2718L73.7155 32.5774L73.7543 32.3509C73.7543 32.3507 73.7544 32.3505 73.7544 32.3504C73.7591 32.3234 73.7641 32.2972 73.7695 32.2718ZM75.8054 31.7319C75.7489 31.6348 75.6738 31.5473 75.5794 31.4747C75.6165 31.4934 75.6479 31.5136 75.6742 31.5338C75.7392 31.5839 75.7899 31.6472 75.8254 31.7252L75.8054 31.7319ZM73.6946 33.9178C73.6102 33.8113 73.546 33.6112 73.5987 33.2624C73.5777 33.4821 73.6112 33.7383 73.795 33.9501C73.8385 34.0003 73.8859 34.0426 73.9358 34.0783C73.8107 34.0331 73.7378 33.9723 73.6946 33.9178ZM75.3687 33.7077C75.3687 33.7076 75.3701 33.7079 75.3732 33.7088C75.3703 33.7082 75.3688 33.7078 75.3687 33.7077Z" fill="#1ABAC7" stroke="#1ABAC7"/>
<path d="M77.4275 31.6037L77.4275 31.6032C77.428 31.6006 77.4284 31.5981 77.4288 31.5957C77.4344 31.5934 77.4406 31.591 77.4473 31.5884C77.4671 31.5809 77.4876 31.5733 77.5089 31.5656C77.4814 31.5977 77.4545 31.6366 77.4322 31.682L77.404 31.7396L77.4275 31.6037ZM79.1616 31.5934C79.0604 31.487 78.9413 31.4198 78.8194 31.3781C79.1239 31.4004 79.2542 31.4995 79.3137 31.5784C79.3912 31.6813 79.4548 31.8893 79.3892 32.2709L79.3891 32.2718L79.0883 34.0421H79.0822L79.3615 32.4152C79.4067 32.1692 79.4007 31.8449 79.1616 31.5934ZM79.0577 34.2184C79.0577 34.2183 79.0579 34.2172 79.0586 34.2152C79.058 34.2174 79.0577 34.2184 79.0577 34.2184ZM79.268 34.0419C79.2703 34.0416 79.2715 34.0415 79.2716 34.0416L79.268 34.0419ZM76.6461 34.0417C76.6462 34.0417 76.6467 34.0418 76.6476 34.0419L76.6461 34.0417ZM77.1958 34.0416C77.1959 34.0417 77.1947 34.0418 77.192 34.0419L77.1958 34.0416Z" fill="#1ABAC7" stroke="#1ABAC7"/>
<path d="M83.2239 34.0208C83.3647 33.8377 83.3509 33.7193 83.1908 33.6179L83.0326 33.8738L83.0323 33.8743L82.9279 34.0432L83.2239 34.0208ZM83.2239 34.0208C82.9094 34.4322 82.3933 34.6464 81.6289 34.6464M83.2239 34.0208L81.6289 34.6464M80.2932 33.0403L80.434 32.2795L80.2932 33.0403ZM80.2932 33.0403C80.1387 33.9053 80.4754 34.6464 81.6289 34.6464M80.2932 33.0403L81.6289 34.6464M83.1775 31.9734C83.1724 31.8711 83.1486 31.7703 83.1039 31.6766C83.1523 31.7511 83.1816 31.847 83.1775 31.9734ZM80.7852 33.1296L80.7864 33.1229L80.7791 33.1751C80.734 33.4298 80.7575 33.7236 80.9516 33.9592C80.9209 33.9321 80.8968 33.9043 80.8777 33.8776C80.776 33.7347 80.7214 33.4883 80.7852 33.1296Z" fill="#1ABAC7" stroke="#1ABAC7"/>
<path d="M84.2611 35.5516C84.2612 35.5516 84.2596 35.5519 84.2562 35.5521C84.2593 35.5516 84.261 35.5515 84.2611 35.5516ZM84.2605 34.4971L84.1242 35.266L84.5351 32.8869L84.4144 33.596L84.3299 34.0926L84.3321 34.093L84.2605 34.4971ZM84.8537 31.5285C84.7619 31.6329 84.7331 31.7456 84.7297 31.76L84.7621 31.5728C84.763 31.5681 84.7638 31.5636 84.7646 31.5595C84.7675 31.5583 84.7705 31.5571 84.7737 31.5559C84.799 31.5468 84.8256 31.5376 84.8537 31.5285ZM86.4806 31.5814C86.3914 31.4896 86.2887 31.4255 86.1814 31.382C86.4604 31.4107 86.5837 31.5057 86.641 31.5818C86.7189 31.6849 86.7815 31.8917 86.714 32.2671L86.7133 32.2712L86.7111 32.2837C86.7326 32.045 86.6792 31.7859 86.4806 31.5814ZM83.7151 35.5521C83.7141 35.5521 83.7136 35.552 83.7136 35.552L83.7151 35.5521Z" fill="#1ABAC7" stroke="#1ABAC7"/>
<path d="M90.4839 31.4777L90.4514 31.6663L90.4834 31.4777H90.4839ZM90.8449 31.4781C90.8449 31.4781 90.8444 31.4781 90.8434 31.478L90.8449 31.4781ZM90.3021 31.4781C90.2992 31.4785 90.2976 31.4786 90.2975 31.4785C90.2975 31.4785 90.2989 31.4783 90.3021 31.4781ZM89.9744 33.9574C90.0378 33.8848 90.0737 33.8071 90.0941 33.7389L90.0636 33.9162L90.0635 33.9166C90.0631 33.919 90.0627 33.9212 90.0623 33.9234C90.0576 33.9252 90.0524 33.9271 90.0469 33.9292L90.0395 33.9319L90.0321 33.9349C90.0137 33.9423 89.9945 33.9498 89.9744 33.9574ZM88.6764 34.1414C88.3749 34.1182 88.2463 34.0183 88.1873 33.9387C88.1088 33.8328 88.0471 33.6217 88.1127 33.2441L88.113 33.2419L88.1174 33.2161C88.0966 33.4412 88.1298 33.7107 88.3349 33.9265C88.4359 34.0326 88.5547 34.0997 88.6764 34.1414ZM88.7724 31.4781C88.7724 31.4781 88.7719 31.4781 88.7709 31.478L88.7724 31.4781ZM88.2239 31.4784C88.2238 31.4784 88.2252 31.4782 88.2283 31.478C88.2255 31.4784 88.224 31.4785 88.2239 31.4784Z" fill="#1ABAC7" stroke="#1ABAC7"/>
<path d="M94.5208 31.8077L94.7535 31.4777H94.8394L94.7828 31.8077H94.5208ZM92.2888 31.4777L92.4074 31.8077H92.2921H92.259H92.1046L92.1615 31.4777H92.2888ZM91.5998 34.2202C91.5998 34.2201 91.6001 34.2188 91.6009 34.2165C91.6002 34.2191 91.5999 34.2202 91.5998 34.2202ZM91.8155 34.0415C91.8155 34.0416 91.8143 34.0417 91.8116 34.0419L91.8155 34.0415Z" fill="#1ABAC7" stroke="#1ABAC7"/>
<path d="M98.5139 31.9478C98.5065 31.8561 98.4838 31.766 98.4443 31.6816C98.4872 31.7501 98.5141 31.8365 98.5139 31.9478ZM96.1203 33.1305L96.1267 33.0965L96.1149 33.1725C96.0698 33.4309 96.0949 33.7291 96.2952 33.9664C96.2604 33.937 96.2338 33.9067 96.213 33.8776C96.1113 33.7348 96.0567 33.4887 96.1203 33.1305Z" fill="#1ABAC7" stroke="#1ABAC7"/>
<path d="M101.742 34.0421L101.752 33.9856L101.742 34.0421H101.742ZM101.381 34.0417C101.381 34.0417 101.381 34.0418 101.382 34.0419L101.381 34.0417ZM101.928 34.0419C101.93 34.0416 101.932 34.0415 101.932 34.0416C101.932 34.0416 101.93 34.0418 101.928 34.0419ZM102.545 31.478C102.545 31.478 102.545 31.478 102.543 31.4779L102.545 31.478ZM101.994 31.4785C101.994 31.4784 101.996 31.4782 101.999 31.478C101.996 31.4784 101.994 31.4785 101.994 31.4785ZM100.009 32.1764L99.9194 32.7065H99.9185L99.8466 33.1211L99.7607 33.6163L100.126 31.4777H100.127L100.009 32.1764ZM99.3265 34.0417C99.3265 34.0417 99.3269 34.0417 99.3278 34.0418L99.3265 34.0417ZM99.8761 34.0415C99.8761 34.0416 99.8748 34.0418 99.872 34.0419C99.8746 34.0416 99.876 34.0415 99.8761 34.0415ZM100.158 31.2959C100.158 31.2959 100.157 31.2976 100.156 31.3006C100.157 31.2973 100.158 31.2958 100.158 31.2959ZM99.9428 31.478C99.9399 31.4784 99.9383 31.4785 99.9382 31.4785C99.9382 31.4784 99.9396 31.4782 99.9428 31.478ZM100.489 31.4779C100.49 31.4779 100.49 31.478 100.49 31.478C100.49 31.478 100.49 31.478 100.489 31.4779Z" fill="#1ABAC7" stroke="#1ABAC7"/>
<path d="M103.905 31.5681C103.887 31.5748 103.87 31.5815 103.852 31.5881L103.905 31.5681ZM103.905 31.5681C103.888 31.5903 103.875 31.6104 103.866 31.6258C103.843 31.6634 103.83 31.6966 103.825 31.7074L103.821 31.7194L103.801 31.7666L103.828 31.6066C103.829 31.6032 103.83 31.5999 103.83 31.5969C103.837 31.5942 103.844 31.5913 103.852 31.5882L103.905 31.5681ZM105.511 31.4806L105.685 31.6102L105.698 31.9044C105.702 31.9792 105.694 32.084 105.672 32.2191L105.451 33.4897L105.636 32.407C105.678 32.1718 105.685 31.8483 105.459 31.5945C105.362 31.4852 105.247 31.4179 105.131 31.3767C105.342 31.3896 105.455 31.4394 105.511 31.4806ZM107.428 31.6327C107.324 31.5029 107.195 31.423 107.061 31.3757C107.375 31.392 107.494 31.4919 107.546 31.5655C107.618 31.6676 107.676 31.8788 107.612 32.2664C107.612 32.2668 107.612 32.2672 107.612 32.2677L107.306 34.0421H107.305L107.584 32.4089C107.625 32.1844 107.627 31.8824 107.428 31.6327ZM107.488 34.0418C107.491 34.0414 107.493 34.0413 107.493 34.0414C107.493 34.0415 107.491 34.0416 107.488 34.0418ZM106.944 34.0417C106.944 34.0417 106.945 34.0418 106.946 34.0419L106.944 34.0417ZM104.996 34.0417C104.996 34.0417 104.996 34.0418 104.997 34.0419L104.996 34.0417ZM105.547 34.0416C105.547 34.0416 105.546 34.0418 105.543 34.0419C105.545 34.0416 105.547 34.0415 105.547 34.0416ZM103.409 34.0421L103.601 32.9238L103.409 34.0421H103.409ZM103.378 34.2218C103.378 34.2212 103.378 34.2204 103.378 34.2195C103.378 34.2212 103.378 34.2225 103.377 34.2232L103.378 34.2218ZM103.048 34.0417C103.048 34.0417 103.048 34.0418 103.049 34.0419L103.048 34.0417ZM103.595 34.0419C103.597 34.0416 103.599 34.0415 103.599 34.0415C103.599 34.0416 103.598 34.0418 103.595 34.0419Z" fill="#1ABAC7" stroke="#1ABAC7"/>
<path d="M111.215 31.6053C111.162 31.5195 111.092 31.458 111.017 31.4166C111.163 31.4405 111.279 31.4711 111.362 31.5001L111.295 31.8895C111.295 31.7952 111.272 31.6966 111.215 31.6053ZM109.228 33.9522C109.307 34.0305 109.395 34.087 109.487 34.1272C109.263 34.0891 109.146 34.0004 109.084 33.9188C108.996 33.8031 108.932 33.5894 108.99 33.237C108.97 33.475 109.018 33.7431 109.228 33.9522Z" fill="#1ABAC7" stroke="#1ABAC7"/>
<path d="M113.277 31.4784C113.277 31.4783 113.278 31.4782 113.281 31.478C113.278 31.4783 113.277 31.4784 113.277 31.4784ZM112.474 34.3431C112.474 34.3431 112.474 34.3418 112.473 34.3389C112.474 34.3415 112.474 34.343 112.474 34.3431ZM114.635 34.0421L114.648 33.9688L114.635 34.0421H114.635ZM114.821 34.0419C114.823 34.0416 114.825 34.0415 114.825 34.0416C114.825 34.0416 114.823 34.0418 114.821 34.0419ZM115.433 31.4781C115.433 31.4781 115.433 31.4781 115.432 31.478L115.433 31.4781Z" fill="#1ABAC7" stroke="#1ABAC7"/>
<path d="M116.313 34.0154L116.373 33.6743C116.375 33.7253 116.383 33.7815 116.404 33.8402C116.439 33.9387 116.501 34.024 116.583 34.0867C116.475 34.0656 116.387 34.0408 116.313 34.0154ZM118.335 32.5981C118.403 32.6715 118.473 32.8103 118.454 33.0787C118.446 32.89 118.387 32.6872 118.217 32.5213C118.206 32.511 118.196 32.5012 118.185 32.4918C118.252 32.5236 118.301 32.5608 118.335 32.5981ZM116.576 31.4785C116.576 31.4784 116.577 31.4782 116.581 31.478C116.578 31.4784 116.576 31.4785 116.576 31.4785Z" fill="#1ABAC7" stroke="#1ABAC7"/>
<path d="M121.474 34.0417C121.474 34.0417 121.474 34.0418 121.475 34.0418L121.474 34.0417ZM122.022 34.0415C122.022 34.0416 122.021 34.0418 122.018 34.0419C122.021 34.0416 122.022 34.0415 122.022 34.0415ZM122.272 31.4777L122.234 31.7024L122.272 31.4777H122.272ZM122.09 31.4781C122.087 31.4785 122.086 31.4786 122.086 31.4785C122.086 31.4785 122.087 31.4783 122.09 31.4781ZM120.001 32.7598H120.003L119.94 33.1199L119.82 33.7994L120.149 31.8817L120.099 32.1764L120.001 32.7598ZM119.418 34.0417C119.418 34.0417 119.418 34.0418 119.419 34.0419L119.418 34.0417ZM119.969 34.0415C119.969 34.0416 119.968 34.0418 119.965 34.0419C119.967 34.0416 119.969 34.0415 119.969 34.0415ZM120.031 31.4785C120.031 31.4784 120.032 31.4782 120.036 31.478C120.033 31.4784 120.031 31.4785 120.031 31.4785ZM120.58 31.4779C120.582 31.4779 120.582 31.478 120.582 31.478C120.582 31.478 120.582 31.478 120.58 31.4779Z" fill="#1ABAC7" stroke="#1ABAC7"/>
<path d="M123.549 33.2577L123.55 33.2558L123.555 33.2257C123.532 33.4598 123.576 33.7251 123.778 33.9376C123.839 34.0026 123.908 34.054 123.98 34.0943C123.818 34.0487 123.719 33.9795 123.66 33.913C123.564 33.8051 123.489 33.6083 123.549 33.2577ZM125.674 31.5786C125.613 31.5151 125.546 31.465 125.474 31.4258C125.638 31.4724 125.736 31.5435 125.795 31.6113C125.893 31.7245 125.966 31.9304 125.908 32.288L125.76 33.1689C125.75 33.2248 125.737 33.2775 125.724 33.3272C125.725 33.3191 125.727 33.3109 125.728 33.3027L125.728 33.3027L125.729 33.2993L125.889 32.3948L125.889 32.3948L125.89 32.3889C125.931 32.1382 125.91 31.8229 125.674 31.5786Z" fill="#1ABAC7" stroke="#1ABAC7"/>
<path d="M129.56 29.7112C129.56 29.7112 129.56 29.7117 129.559 29.7128L129.56 29.7112ZM129.73 29.9059C129.73 29.9061 129.729 29.9082 129.726 29.9119C129.726 29.9115 129.727 29.9111 129.727 29.9107C129.729 29.9072 129.73 29.9057 129.73 29.9059ZM128.206 29.8577L128.047 29.8873L128.208 29.8642C128.207 29.862 128.207 29.8599 128.206 29.8577ZM128.016 30.19C128.016 30.19 128.018 30.189 128.023 30.1873C128.019 30.1893 128.017 30.1901 128.016 30.19ZM129.673 31.4777L129.641 31.6648L129.673 31.4777H129.673ZM130.034 31.4781C130.034 31.4781 130.034 31.4781 130.033 31.478L130.034 31.4781ZM129.49 31.478C129.488 31.4784 129.486 31.4785 129.486 31.4784C129.486 31.4784 129.487 31.4782 129.49 31.478ZM129.164 33.9576C129.228 33.8846 129.263 33.8065 129.284 33.7389L129.254 33.9133C129.253 33.9168 129.252 33.9202 129.252 33.9234C129.247 33.9252 129.242 33.9271 129.237 33.9292L129.229 33.9319L129.222 33.9349C129.203 33.9424 129.184 33.9499 129.164 33.9576ZM127.866 34.1414C127.565 34.1182 127.436 34.0183 127.376 33.9383C127.297 33.8319 127.235 33.6204 127.3 33.2426L127.3 33.2426L127.312 33.1716C127.283 33.4049 127.306 33.6962 127.525 33.9265C127.625 34.0326 127.744 34.0997 127.866 34.1414ZM127.413 31.4785C127.413 31.4784 127.415 31.4782 127.418 31.478C127.415 31.4784 127.413 31.4785 127.413 31.4785Z" fill="#1ABAC7" stroke="#1ABAC7"/>
<path d="M136.202 30.6693L136.551 30.1759H136.706L136.621 30.6693H136.212H136.202ZM133.247 30.1759L133.423 30.6693H133.275H133.223H132.96L133.046 30.1759H133.247ZM132.379 34.0421L132.74 31.948C132.733 32.2003 132.709 32.4078 132.67 32.6331C132.67 32.6331 132.67 32.6332 132.67 32.6332L132.424 34.0421H132.379ZM132.883 30.1764C132.881 30.1768 132.879 30.1769 132.879 30.1768C132.879 30.1768 132.88 30.1766 132.883 30.1764ZM136.351 32.2343L136.039 34.0421H136.005L136.219 32.7982L136.219 32.7982L136.219 32.7945C136.248 32.6234 136.288 32.4431 136.351 32.2343ZM136.011 34.2013C136.01 34.2037 136.01 34.2048 136.01 34.2047C136.01 34.2046 136.01 34.2035 136.011 34.2013ZM136.202 34.0415C136.204 34.0412 136.206 34.0411 136.206 34.0411C136.206 34.0412 136.205 34.0414 136.202 34.0415Z" fill="#1ABAC7" stroke="#1ABAC7"/>
<path d="M140.249 34.0208C140.39 33.8377 140.376 33.7193 140.216 33.6179L140.058 33.8738L140.057 33.8743L139.953 34.0432L140.249 34.0208ZM140.249 34.0208C139.934 34.4322 139.418 34.6464 138.651 34.6464M140.249 34.0208L138.651 34.6464M137.318 33.0403L137.459 32.2795L137.318 33.0403ZM137.318 33.0403C137.164 33.9053 137.498 34.6464 138.651 34.6464M137.318 33.0403L138.651 34.6464M140.203 31.9734C140.198 31.8714 140.174 31.7709 140.129 31.6775C140.178 31.7518 140.207 31.8474 140.203 31.9734ZM137.81 33.1296L137.812 33.1229L137.804 33.1751C137.759 33.4319 137.783 33.7283 137.981 33.9649C137.948 33.9362 137.922 33.9066 137.902 33.8782C137.801 33.7355 137.746 33.4891 137.81 33.1296Z" fill="#1ABAC7" stroke="#1ABAC7"/>
<path d="M143.453 31.4784L143.633 31.6145L143.646 31.9044C143.649 31.9786 143.641 32.0827 143.618 32.2128L143.618 32.2128L143.617 32.2172L143.555 32.5747L143.584 32.407C143.625 32.1718 143.632 31.8483 143.407 31.5945C143.31 31.4852 143.195 31.4179 143.079 31.3767C143.291 31.3897 143.401 31.4395 143.453 31.4784ZM145.375 31.6327C145.272 31.5029 145.143 31.423 145.009 31.3757C145.322 31.392 145.441 31.4919 145.493 31.5655C145.565 31.6676 145.624 31.8787 145.56 32.2661L145.346 33.4973L145.532 32.4089C145.573 32.1844 145.575 31.8824 145.375 31.6327ZM144.892 34.0417C144.892 34.0417 144.892 34.0418 144.893 34.0419L144.892 34.0417ZM145.438 34.0414C145.438 34.0414 145.437 34.0416 145.433 34.0418C145.436 34.0414 145.438 34.0413 145.438 34.0414ZM142.944 34.0417C142.944 34.0417 142.944 34.0418 142.945 34.0419L142.944 34.0417ZM143.493 34.0416C143.493 34.0417 143.492 34.0418 143.49 34.0419L143.493 34.0416ZM141.8 31.5882C141.817 31.5815 141.835 31.5748 141.853 31.5681C141.836 31.5903 141.823 31.6104 141.813 31.6258C141.791 31.6634 141.778 31.6966 141.773 31.7074L141.768 31.7194L141.749 31.7666L141.776 31.6066C141.777 31.6031 141.777 31.5998 141.778 31.5967C141.784 31.5943 141.791 31.5916 141.798 31.5888L141.798 31.5888L141.8 31.5882ZM141.356 34.0421L141.55 32.9168L141.357 34.0421H141.356ZM140.995 34.0417C140.995 34.0417 140.996 34.0418 140.997 34.0419L140.995 34.0417ZM141.542 34.0419C141.545 34.0416 141.546 34.0415 141.546 34.0416C141.546 34.0416 141.545 34.0418 141.542 34.0419Z" fill="#1ABAC7" stroke="#1ABAC7"/>
<path d="M149.163 31.6053C149.11 31.5195 149.04 31.458 148.965 31.4166C149.111 31.4405 149.227 31.4711 149.31 31.5001L149.243 31.8894C149.243 31.7951 149.219 31.6966 149.163 31.6053ZM147.176 33.9522C147.255 34.0305 147.343 34.087 147.435 34.1272C147.211 34.0891 147.094 34.0004 147.032 33.9188C146.944 33.8031 146.88 33.5895 146.938 33.237C146.918 33.4751 146.966 33.7431 147.176 33.9522Z" fill="#1ABAC7" stroke="#1ABAC7"/>
<path d="M151.224 31.4784C151.224 31.4783 151.225 31.4782 151.228 31.478C151.226 31.4784 151.224 31.4784 151.224 31.4784ZM150.423 34.3444C150.423 34.3445 150.422 34.3429 150.421 34.3391C150.422 34.3424 150.423 34.3443 150.423 34.3444ZM152.771 34.0416C152.771 34.0417 152.77 34.0418 152.767 34.0419L152.771 34.0416ZM153.381 31.4781C153.381 31.4781 153.38 31.4781 153.38 31.478L153.381 31.4781Z" fill="#1ABAC7" stroke="#1ABAC7"/>
<path d="M154.95 31.4784C154.95 31.4783 154.951 31.4782 154.954 31.478C154.951 31.4783 154.95 31.4784 154.95 31.4784ZM154.151 34.3444C154.151 34.3445 154.15 34.3429 154.149 34.3391C154.15 34.3424 154.151 34.3443 154.151 34.3444ZM156.308 34.0421L156.341 33.8565L156.309 34.0421H156.308ZM156.277 34.2207C156.278 34.2203 156.278 34.2199 156.278 34.2195C156.278 34.2204 156.277 34.2212 156.277 34.2218L156.277 34.2207ZM156.494 34.0419C156.497 34.0416 156.498 34.0415 156.498 34.0415C156.498 34.0416 156.497 34.0417 156.494 34.0419ZM157.109 31.4781C157.109 31.4781 157.109 31.4781 157.108 31.478L157.109 31.4781Z" fill="#1ABAC7" stroke="#1ABAC7"/>
<path d="M157.867 35.2205C157.861 35.2146 157.857 35.2094 157.853 35.2052L157.851 35.2047C157.887 35.2716 157.931 35.3379 157.985 35.3996L158.134 35.3273L158.134 35.3273L158.136 35.3264C158.158 35.3156 158.168 35.3123 158.168 35.3123C158.168 35.3122 158.165 35.3131 158.16 35.3142C158.155 35.3155 158.145 35.3173 158.132 35.3185C158.132 35.3186 158.131 35.3186 158.13 35.3187C158.104 35.321 158.065 35.3204 158.019 35.3079C157.945 35.2878 157.894 35.2485 157.867 35.2205ZM158.222 31.4785C158.222 31.4784 158.223 31.4782 158.226 31.478C158.223 31.4784 158.222 31.4785 158.222 31.4785Z" fill="#1ABAC7" stroke="#1ABAC7"/>
<path d="M162.162 31.57L162.162 31.5694C162.163 31.5659 162.163 31.5626 162.164 31.5595C162.167 31.5583 162.17 31.5572 162.173 31.556C162.198 31.5469 162.224 31.5377 162.252 31.5285C162.233 31.5497 162.218 31.5706 162.205 31.5899C162.177 31.6317 162.161 31.6689 162.154 31.6858C162.15 31.6946 162.147 31.7024 162.146 31.7045C162.146 31.7047 162.146 31.7049 162.146 31.7051L162.134 31.733L162.162 31.57ZM163.88 31.5829C163.791 31.4904 163.688 31.426 163.581 31.3823C163.858 31.4113 163.981 31.506 164.038 31.5818C164.116 31.6849 164.178 31.8917 164.111 32.2671L164.111 32.2671L164.11 32.2727L164.108 32.2838C164.129 32.0467 164.078 31.7879 163.88 31.5829ZM161.73 34.0928L161.732 34.093L161.66 34.4971L161.524 35.2668L161.888 33.1555L161.814 33.5967L161.73 34.0928ZM161.112 35.552C161.112 35.552 161.112 35.552 161.113 35.5521L161.112 35.552ZM161.659 35.5516C161.659 35.5517 161.658 35.5519 161.655 35.5521C161.658 35.5517 161.659 35.5516 161.659 35.5516Z" fill="#1ABAC7" stroke="#1ABAC7"/>
<path d="M167.163 33.8188C167.163 33.8187 167.165 33.8191 167.168 33.8201C167.165 33.8194 167.163 33.8189 167.163 33.8188ZM167.569 31.5958C167.584 31.6147 167.596 31.6358 167.606 31.6597C167.595 31.6373 167.583 31.616 167.569 31.5958ZM165.524 31.5129C165.524 31.5129 165.526 31.5137 165.529 31.5154C165.526 31.5138 165.524 31.513 165.524 31.5129ZM167.38 33.5855C167.38 33.5855 167.379 33.5875 167.377 33.5917C167.379 33.5877 167.38 33.5856 167.38 33.5855Z" fill="#1ABAC7" stroke="#1ABAC7"/>
<path d="M170.858 33.9343C170.839 33.9419 170.819 33.9497 170.798 33.9575C170.865 33.8801 170.902 33.7965 170.921 33.7224L170.888 33.9135C170.888 33.9169 170.887 33.9202 170.886 33.9233C170.881 33.9254 170.876 33.9275 170.869 33.9298L170.869 33.9297L170.858 33.9343ZM171.667 31.4781C171.667 31.4781 171.667 31.4781 171.666 31.478L171.667 31.4781ZM171.12 31.4785C171.12 31.4784 171.122 31.4782 171.125 31.478C171.122 31.4784 171.12 31.4785 171.12 31.4785ZM169.159 33.9265C169.26 34.0328 169.379 34.1 169.501 34.1416C169.199 34.1189 169.069 34.0187 169.01 33.9383C168.931 33.8321 168.869 33.6209 168.934 33.2441L168.934 33.2426L168.946 33.1718C168.917 33.4051 168.94 33.6963 169.159 33.9265ZM169.048 31.4785C169.048 31.4784 169.049 31.4782 169.052 31.478C169.049 31.4784 169.048 31.4785 169.048 31.4785ZM169.594 31.4781C169.594 31.4781 169.593 31.4781 169.592 31.478L169.594 31.4781Z" fill="#1ABAC7" stroke="#1ABAC7"/>
<path d="M175.395 31.4781C175.395 31.4781 175.394 31.4781 175.393 31.478L175.395 31.4781ZM174.847 31.4785C174.847 31.4785 174.849 31.4783 174.852 31.4781C174.849 31.4785 174.847 31.4786 174.847 31.4785ZM174.523 33.9586C174.587 33.8856 174.623 33.8075 174.644 33.7389L174.613 33.9162L174.613 33.9166C174.613 33.9193 174.612 33.9219 174.612 33.9244C174.607 33.9261 174.603 33.9279 174.598 33.9298L174.598 33.9297L174.586 33.9343C174.566 33.9423 174.545 33.9504 174.523 33.9586ZM173.226 34.1414C172.925 34.1182 172.796 34.0183 172.737 33.9387C172.659 33.8328 172.597 33.6217 172.662 33.2441L172.663 33.2419L172.667 33.2161C172.646 33.4411 172.68 33.7106 172.885 33.9265C172.986 34.0326 173.104 34.0997 173.226 34.1414ZM172.775 31.4785C172.775 31.4785 172.776 31.4783 172.779 31.4781C172.776 31.4785 172.775 31.4786 172.775 31.4785ZM173.322 31.4781C173.322 31.4781 173.322 31.4781 173.321 31.478L173.322 31.4781Z" fill="#1ABAC7" stroke="#1ABAC7"/>
<path d="M50.0861 18.8508L50.526 19.6801L50.9687 18.8523L54.0371 13.1156C54.1587 12.9021 54.1994 12.8781 54.2043 12.8752L54.2044 12.8752L54.2046 12.8751C54.2085 12.8728 54.2512 12.8471 54.5017 12.8471H55.6856C55.7698 12.8471 55.8244 12.8529 55.8583 12.8592C55.8644 12.8926 55.8699 12.9464 55.8699 13.029V23.7644C55.8699 23.8472 55.8643 23.9008 55.8581 23.934C55.8245 23.9404 55.77 23.9463 55.6856 23.9463H54.4354C54.3602 23.9463 54.3107 23.9412 54.2796 23.9357C54.2733 23.902 54.2676 23.8477 54.2676 23.7644V19.8957C54.2676 18.9059 54.3926 17.8231 54.8019 16.1818L54.9568 15.5609H54.3168H54.1678H53.7967L53.6892 15.916C53.3489 17.0405 52.8932 18.1021 52.4097 18.9914C52.4096 18.9916 52.4095 18.9917 52.4094 18.9919L51.2261 21.1548L51.226 21.1547L51.2206 21.1652C51.1343 21.3321 51.0965 21.3622 51.0886 21.3678L51.0885 21.3678C51.0876 21.3685 51.0819 21.3728 51.0614 21.3778C51.0362 21.3839 50.9907 21.3907 50.9114 21.3907H50.1442C50.0582 21.3907 50.0086 21.385 49.9796 21.3789C49.9662 21.3761 49.9592 21.3736 49.9565 21.3725L49.9542 21.3715L49.9539 21.3713C49.9538 21.3713 49.9151 21.3477 49.8217 21.166L49.8181 21.1591L49.8143 21.1522L48.6138 18.9882L48.6139 18.9882L48.6086 18.979C48.1041 18.1134 47.7511 17.1542 47.4232 15.9314L47.3239 15.5609H46.9403H46.7912H46.1631L46.304 16.173C46.6973 17.8818 46.7907 18.8159 46.7907 19.9126V23.7644C46.7907 23.8477 46.7851 23.902 46.7787 23.9357C46.7477 23.9412 46.6982 23.9463 46.6229 23.9463H45.439C45.3537 23.9463 45.2999 23.9398 45.2679 23.933C45.2612 23.9017 45.2546 23.8487 45.2546 23.7644V13.029C45.2546 12.945 45.2611 12.8918 45.2677 12.8602C45.3 12.8535 45.3539 12.8471 45.439 12.8471H46.5236C46.7845 12.8471 46.8548 12.8753 46.8773 12.8876C46.89 12.8945 46.9322 12.9185 47.0346 13.098L50.0861 18.8508Z" fill="#1ABAC7" stroke="#1ABAC7"/>
<path d="M67.201 21.9076V22.4076H67.701H68.4378C68.5241 22.4076 68.5764 22.415 68.6058 22.4221C68.6138 22.4539 68.6222 22.5112 68.6222 22.6064V26.3539C68.6222 26.4478 68.6147 26.506 68.607 26.5397C68.5755 26.5463 68.5224 26.5527 68.4378 26.5527H67.2015C67.127 26.5527 67.0781 26.5477 67.0475 26.5423C67.0402 26.506 67.0337 26.4466 67.0337 26.3539V24.4463V23.9463H66.5337H59.0909C59.0063 23.9463 58.9531 23.9399 58.9217 23.9333C58.914 23.8995 58.9066 23.8414 58.9066 23.7475V13.0459C58.9066 12.9523 58.9139 12.894 58.9215 12.8599C58.9532 12.8534 59.0065 12.8471 59.0909 12.8471H60.4432C60.5277 12.8471 60.5809 12.8535 60.6124 12.8601C60.62 12.8938 60.6276 12.952 60.6276 13.0459V21.9076V22.4076H61.1276H64.9993H65.4993V21.9076V13.0459C65.4993 12.9539 65.5056 12.8951 65.5127 12.859C65.546 12.8528 65.6001 12.8471 65.6837 12.8471H67.0194C67.1015 12.8471 67.1547 12.8526 67.1876 12.8587C67.1947 12.8949 67.201 12.9538 67.201 13.0459V21.9076Z" fill="#1ABAC7" stroke="#1ABAC7"/>
<path d="M72.6596 21.9076V22.4076H73.1596H78C78.0862 22.4076 78.1386 22.415 78.1679 22.4221C78.176 22.4539 78.1844 22.5112 78.1844 22.6064V23.7475C78.1844 23.8417 78.1767 23.8997 78.169 23.9331C78.1378 23.9398 78.0848 23.9463 78 23.9463H71.123C71.0382 23.9463 70.9851 23.9398 70.954 23.9331C70.9463 23.8997 70.9386 23.8417 70.9386 23.7475V13.0459C70.9386 12.952 70.9461 12.8938 70.9538 12.8601C70.9853 12.8535 71.0384 12.8471 71.123 12.8471H77.8344C77.9165 12.8471 77.9697 12.8526 78.0027 12.8587C78.0097 12.8949 78.016 12.9538 78.016 13.0459V14.1871C78.016 14.27 78.0104 14.3237 78.0042 14.357C77.971 14.3632 77.9173 14.369 77.8344 14.369H73.1596H72.6596V14.869V17.0668V17.5668H73.1596H76.9983C77.0827 17.5668 77.1372 17.5726 77.1708 17.5791C77.177 17.6123 77.1826 17.6659 77.1826 17.7487V18.8898C77.1826 18.9818 77.1763 19.0407 77.1693 19.0767C77.1359 19.083 77.0819 19.0886 76.9983 19.0886H73.1596H72.6596V19.5886V21.9076Z" fill="#1ABAC7" stroke="#1ABAC7"/>
<path d="M86.9302 17.5499H87.4302V17.0499V13.0459C87.4302 12.9539 87.4365 12.8951 87.4435 12.859C87.4769 12.8528 87.5309 12.8471 87.6145 12.8471H88.964C89.0384 12.8471 89.0874 12.852 89.1183 12.8574C89.1255 12.894 89.1318 12.9534 89.1318 13.0459V23.7475C89.1318 23.8402 89.1254 23.8995 89.1181 23.9359C89.0875 23.9413 89.0386 23.9463 88.964 23.9463H87.6145C87.5307 23.9463 87.4768 23.9405 87.4437 23.9342C87.4366 23.8984 87.4302 23.8397 87.4302 23.7475V19.5886V19.0886H86.9302H82.9066H82.4066V19.5886V23.7475C82.4066 23.8414 82.3991 23.8995 82.3915 23.9333C82.3601 23.9399 82.3069 23.9463 82.2222 23.9463H80.87C80.7852 23.9463 80.7322 23.9398 80.701 23.9331C80.6933 23.8997 80.6856 23.8417 80.6856 23.7475V13.0459C80.6856 12.952 80.6931 12.8938 80.7008 12.8601C80.7323 12.8535 80.7854 12.8471 80.87 12.8471H82.2222C82.3067 12.8471 82.3599 12.8534 82.3917 12.8599C82.3993 12.894 82.4066 12.9523 82.4066 13.0459V17.0499V17.5499H82.9066H86.9302Z" fill="#1ABAC7" stroke="#1ABAC7"/>
<path d="M100.499 21.6585L100.498 21.6584L100.494 21.6705C100.203 22.4957 99.7189 23.1156 99.0457 23.5352C98.3665 23.9586 97.459 24.1999 96.2908 24.1999C94.804 24.1999 93.7096 23.7879 92.9901 23.1068C92.2739 22.429 91.8676 21.4266 91.8676 20.1183V16.6751C91.8676 15.3669 92.2739 14.3637 92.9902 13.685C93.7099 13.0033 94.8042 12.5907 96.2908 12.5907C97.4588 12.5907 98.3663 12.8326 99.0456 13.2564C99.719 13.6764 100.203 14.2965 100.494 15.1203L100.494 15.1204L100.499 15.1321C100.531 15.2163 100.541 15.2662 100.543 15.2918C100.517 15.3104 100.467 15.3382 100.378 15.3711L99.1068 15.8252C99.0262 15.8492 98.9717 15.8608 98.9356 15.8657C98.9173 15.8336 98.8927 15.7816 98.8618 15.6993L98.8612 15.6976C98.6687 15.19 98.3565 14.782 97.8999 14.5091C97.452 14.2415 96.9079 14.1295 96.2908 14.1295C95.4953 14.1295 94.8026 14.3157 94.3072 14.7704C93.8041 15.2323 93.5886 15.8931 93.5886 16.6582V20.1352C93.5886 20.8992 93.8042 21.5593 94.3074 22.0207C94.8028 22.4749 95.4953 22.6612 96.2908 22.6612C96.908 22.6612 97.4518 22.5491 97.8995 22.282C98.356 22.0097 98.6683 21.6026 98.861 21.0964L98.8618 21.0941C98.8959 21.0032 98.9243 20.9471 98.9453 20.9138C98.9728 20.9198 99.0149 20.9321 99.0753 20.9566L99.085 20.9605L99.0948 20.964L100.379 21.4224C100.379 21.4226 100.379 21.4227 100.38 21.4228C100.467 21.4546 100.517 21.4817 100.543 21.5C100.54 21.5258 100.53 21.5754 100.499 21.6585ZM100.544 15.3139C100.544 15.3138 100.544 15.3131 100.544 15.3118L100.544 15.3139ZM100.544 21.477C100.544 21.477 100.544 21.4776 100.544 21.479L100.544 21.477Z" fill="#1ABAC7" stroke="#1ABAC7"/>
<path d="M111.402 23.9421L111.402 23.9422L111.404 23.9463H110.144C109.715 23.9463 109.536 23.9153 109.44 23.8723C109.388 23.8487 109.327 23.81 109.227 23.6L109.227 23.6L109.225 23.5973L107.659 20.3626C107.469 19.9568 107.254 19.5923 106.892 19.3546C106.527 19.1149 106.093 19.0548 105.588 19.0548H105.155H104.655V19.5548V23.7475C104.655 23.8417 104.647 23.8997 104.639 23.9331C104.608 23.9398 104.555 23.9463 104.47 23.9463H103.118C103.033 23.9463 102.98 23.9398 102.949 23.9331C102.941 23.8997 102.934 23.8417 102.934 23.7475V13.0459C102.934 12.952 102.941 12.8938 102.949 12.8601C102.98 12.8535 103.034 12.8471 103.118 12.8471H104.47C104.555 12.8471 104.608 12.8535 104.64 12.8601C104.647 12.8938 104.655 12.952 104.655 13.0459V17.0668V17.5668H105.155H105.571H105.829L105.979 17.357L108.931 13.215L108.932 13.2144C109.097 12.9818 109.165 12.9348 109.223 12.9095C109.306 12.8733 109.454 12.8471 109.86 12.8471H111.159L107.786 17.4709L107.462 17.916L107.936 18.1961C108.456 18.5031 108.854 18.9902 109.267 19.7842C109.267 19.7846 109.267 19.7849 109.267 19.7853L111.402 23.9421Z" fill="#1ABAC7" stroke="#1ABAC7"/>
<path d="M115.851 14.369H115.351V14.869V23.7475C115.351 23.8414 115.344 23.8995 115.336 23.9333C115.305 23.9399 115.251 23.9463 115.167 23.9463H113.817C113.733 23.9463 113.679 23.9399 113.648 23.9333C113.64 23.8995 113.633 23.8414 113.633 23.7475V13.0459C113.633 12.9523 113.64 12.894 113.648 12.8599C113.68 12.8534 113.733 12.8471 113.817 12.8471H121.828C121.901 12.8471 121.95 12.8519 121.98 12.8571C121.987 12.8938 121.994 12.9534 121.994 13.0459V23.7475C121.994 23.8403 121.987 23.8997 121.98 23.9362C121.95 23.9415 121.902 23.9463 121.828 23.9463H120.476C120.392 23.9463 120.338 23.9405 120.305 23.9342C120.298 23.8984 120.292 23.8397 120.292 23.7475V14.869V14.369H119.792H115.851Z" fill="#1ABAC7" stroke="#1ABAC7"/>
<path d="M127.268 20.01H126.768V20.51V23.7475C126.768 23.8414 126.76 23.8995 126.753 23.9333C126.721 23.9399 126.668 23.9463 126.583 23.9463H125.231C125.146 23.9463 125.093 23.9398 125.062 23.9331C125.054 23.8997 125.047 23.8417 125.047 23.7475V13.0459C125.047 12.952 125.054 12.8938 125.062 12.8601C125.093 12.8535 125.147 12.8471 125.231 12.8471H129.705C130.845 12.8471 131.731 13.1967 132.331 13.7888C132.929 14.3799 133.294 15.2642 133.294 16.4356C133.294 17.6098 132.936 18.4895 132.343 19.0755C131.749 19.6624 130.864 20.01 129.705 20.01H127.268ZM126.768 17.9713V18.4713H127.268H129.42C130.001 18.4713 130.527 18.3009 130.911 17.9248C131.295 17.5474 131.474 17.0227 131.474 16.4356C131.474 15.854 131.302 15.3244 130.924 14.9387C130.544 14.5515 130.015 14.369 129.42 14.369H127.268H126.768V14.869V17.9713Z" fill="#1ABAC7" stroke="#1ABAC7"/>
<path d="M135.395 20.1183V16.6751C135.395 15.3669 135.802 14.3637 136.518 13.685C137.238 13.0033 138.332 12.5907 139.819 12.5907C141.314 12.5907 142.413 13.0037 143.134 13.6855C143.852 14.364 144.258 15.3669 144.258 16.6751V20.1183C144.258 21.4265 143.852 22.4286 143.134 23.1064C142.413 23.7876 141.314 24.1999 139.819 24.1999C138.332 24.1999 137.237 23.7879 136.518 23.1068C135.802 22.429 135.395 21.4266 135.395 20.1183ZM142.537 20.169V16.6244C142.537 15.8566 142.303 15.2044 141.79 14.753C141.289 14.3113 140.597 14.1295 139.819 14.1295C139.047 14.1295 138.359 14.3119 137.86 14.7539C137.351 15.2051 137.116 15.8566 137.116 16.6244V20.169C137.116 20.9357 137.351 21.5865 137.86 22.0372C138.359 22.4787 139.047 22.6612 139.819 22.6612C140.597 22.6612 141.289 22.4793 141.79 22.0381C142.303 21.5872 142.537 20.9358 142.537 20.169Z" fill="#1ABAC7" stroke="#1ABAC7"/>
<path d="M155.446 23.9421L155.446 23.9422L155.448 23.9463H154.188C153.759 23.9463 153.58 23.9153 153.484 23.8723C153.431 23.8487 153.371 23.81 153.271 23.6L153.271 23.6L153.269 23.5973L151.703 20.3625C151.513 19.9567 151.297 19.5923 150.936 19.3546C150.571 19.1149 150.136 19.0548 149.632 19.0548H149.199H148.699V19.5548V23.7475C148.699 23.8417 148.691 23.8997 148.683 23.9331C148.652 23.9398 148.599 23.9463 148.514 23.9463H147.162C147.077 23.9463 147.024 23.9398 146.993 23.9331C146.985 23.8997 146.978 23.8417 146.978 23.7475V13.0459C146.978 12.952 146.985 12.8938 146.993 12.8601C147.024 12.8535 147.077 12.8471 147.162 12.8471H148.514C148.599 12.8471 148.652 12.8535 148.683 12.8601C148.691 12.8938 148.699 12.952 148.699 13.0459V17.0668V17.5668H149.199H149.615H149.873L150.022 17.3572L152.978 13.2152L152.978 13.2144C153.144 12.9809 153.211 12.9343 153.269 12.9092C153.351 12.8734 153.497 12.8471 153.904 12.8471H155.206L151.833 17.4709L151.509 17.9152L151.982 18.1956C152.5 18.5026 152.898 18.9902 153.31 19.7843C153.311 19.7846 153.311 19.785 153.311 19.7853L155.446 23.9421Z" fill="#1ABAC7" stroke="#1ABAC7"/>
<path d="M162.76 13.0506L162.76 13.0506L162.765 13.0631L166.751 23.934C166.752 23.9344 166.752 23.9348 166.752 23.9352C166.753 23.939 166.754 23.9427 166.756 23.9463H165.522C165.105 23.9463 164.945 23.9067 164.877 23.8717C164.876 23.8712 164.875 23.8708 164.874 23.8703C164.855 23.8609 164.817 23.8418 164.763 23.6681L164.763 23.668L164.761 23.6619L164.245 22.0587L164.134 21.7119H163.769H159.649H159.289L159.175 22.0535L158.64 23.656C158.64 23.6561 158.64 23.6563 158.64 23.6564C158.576 23.8466 158.537 23.8663 158.522 23.8739C158.521 23.8743 158.52 23.8746 158.52 23.875C158.461 23.9062 158.313 23.9463 157.897 23.9463H156.762C156.764 23.9427 156.765 23.9391 156.766 23.9354C156.766 23.9349 156.767 23.9345 156.767 23.934L160.753 13.0974L160.753 13.0974L160.756 13.089C160.79 12.9919 160.818 12.9364 160.838 12.9051C160.848 12.8905 160.855 12.8828 160.858 12.8794C160.861 12.8764 160.862 12.8755 160.862 12.8754L160.862 12.8754L160.862 12.8754C160.863 12.8749 160.904 12.8471 161.117 12.8471H162.401C162.615 12.8471 162.667 12.8747 162.675 12.8793C162.676 12.88 162.677 12.8807 162.679 12.8825C162.681 12.8844 162.686 12.8895 162.693 12.9002C162.708 12.9229 162.732 12.9674 162.76 13.0506ZM162.282 14.8734L162.282 14.8722L162.282 14.8721L162.282 14.872L162.282 14.8719L162.282 14.8718L162.269 14.3859H161.783H161.617H161.109L161.117 14.8934L161.117 14.8934L161.117 14.8936L161.117 14.8937L161.117 14.8939L161.117 14.8946L161.117 14.9021L161.117 14.9365C161.117 14.9678 161.116 15.0153 161.114 15.0767C161.11 15.1997 161.1 15.3775 161.079 15.5918C161.035 16.023 160.945 16.589 160.759 17.1485L160.759 17.1485L160.758 17.1513L159.891 19.8083L159.678 20.4634H160.367H163.068H163.76L163.543 19.807L162.675 17.1705C162.496 16.5954 162.397 16.0192 162.343 15.5826C162.316 15.365 162.301 15.1846 162.292 15.0597C162.288 14.9973 162.286 14.949 162.284 14.9169L162.283 14.8814L162.282 14.8734Z" fill="#1ABAC7" stroke="#1ABAC7"/>
<path d="M170.125 14.869V14.369H169.625H167.006C166.922 14.369 166.867 14.3631 166.834 14.3567C166.828 14.3235 166.822 14.2699 166.822 14.1871V13.0459C166.822 12.9539 166.828 12.8951 166.835 12.859C166.869 12.8528 166.923 12.8471 167.006 12.8471H174.935C175.019 12.8471 175.073 12.8529 175.106 12.8591C175.113 12.8949 175.119 12.9537 175.119 13.0459V14.1871C175.119 14.2701 175.114 14.3236 175.107 14.3565C175.074 14.363 175.02 14.369 174.935 14.369H172.33H171.83V14.869V23.7475C171.83 23.8397 171.823 23.8984 171.816 23.9342C171.783 23.9405 171.729 23.9463 171.645 23.9463H170.293C170.219 23.9463 170.17 23.9412 170.139 23.9358C170.132 23.8997 170.125 23.8405 170.125 23.7475V14.869Z" fill="#1ABAC7" stroke="#1ABAC7"/>
</svg>
