<svg width="60" height="60" viewBox="0 0 60 60" fill="none" xmlns="http://www.w3.org/2000/svg">
<g clip-path="url(#clip0)">
<path d="M11.0689 27.5866L11.0689 27.5866C11.1932 28.0006 11.5743 28.2843 12.0066 28.2843C12.4389 28.2843 12.82 28.0006 12.9442 27.5866L12.9442 27.5866L13.6599 25.2011C13.826 24.6475 14.2485 24.1955 14.7896 23.9926L14.7545 23.899L14.7896 23.9926L16.1383 23.4868L16.1383 23.4868C16.5203 23.3435 16.7735 22.9783 16.7735 22.5703C16.7735 22.1623 16.5205 21.797 16.1383 21.6538C16.1383 21.6538 16.1383 21.6538 16.1383 21.6538L14.7896 21.148L14.7545 21.2416L14.7896 21.148C14.2485 20.9451 13.8259 20.4931 13.6599 19.9395L13.6599 19.9395L12.9442 17.5539L12.9442 17.5539C12.82 17.1399 12.4389 16.8563 12.0066 16.8563C11.5743 16.8563 11.1932 17.1398 11.0689 17.5539L11.0689 17.5539L10.3532 19.9394C10.1871 20.493 9.76449 20.9451 9.22352 21.148C9.22351 21.148 9.22351 21.148 9.22351 21.148L7.87469 21.6538L7.87468 21.6538C7.49267 21.7971 7.23945 22.1622 7.23945 22.5703C7.23945 22.9783 7.49255 23.3434 7.87469 23.4867L7.9098 23.3931L7.87469 23.4867L9.22352 23.9925C9.76461 24.1954 10.1871 24.6474 10.3532 25.2011L11.0689 27.5866ZM10.7047 22.57C11.2601 22.1938 11.7117 21.6748 12.0065 21.0697C12.3012 21.6747 12.7528 22.1938 13.3082 22.57C12.7528 22.9463 12.3012 23.4654 12.0064 24.0704C11.7117 23.4654 11.2601 22.9463 10.7047 22.57Z" fill="#1ABAC7" stroke="#1ABAC7" stroke-width="0.2"/>
<path d="M43.8617 23.4867L43.8617 23.4867L45.2105 23.9925C45.7516 24.1954 46.1742 24.6474 46.3402 25.201L46.3402 25.2011L47.0559 27.5866L47.0559 27.5866C47.1802 28.0006 47.5613 28.2843 47.9936 28.2843C48.426 28.2843 48.807 28.0006 48.9312 27.5866L48.9312 27.5866L49.6469 25.2011L49.6469 25.201C49.8129 24.6475 50.2355 24.1955 50.7766 23.9926L52.1254 23.4868L52.1254 23.4868C52.5075 23.3435 52.7606 22.9783 52.7606 22.5703C52.7606 22.1623 52.5075 21.797 52.1254 21.6538C52.1254 21.6538 52.1254 21.6538 52.1254 21.6538L50.7766 21.148C50.2355 20.9451 49.8129 20.4931 49.6469 19.9394L49.6469 19.9394L48.9312 17.5539C48.9312 17.5539 48.9312 17.5539 48.9312 17.5539C48.8071 17.1399 48.426 16.8563 47.9936 16.8563C47.5613 16.8563 47.1803 17.1398 47.0559 17.5539L47.0559 17.5539L46.3402 19.9395L46.3402 19.9395C46.1743 20.4931 45.7516 20.9451 45.2104 21.148L45.2104 21.148L43.8617 21.6538L43.8617 21.6538C43.4797 21.7971 43.2266 22.1623 43.2266 22.5703C43.2266 22.9783 43.4797 23.3434 43.8617 23.4867ZM46.6917 22.57C47.2472 22.1938 47.6988 21.6748 47.9936 21.0697C48.2883 21.6748 48.7399 22.1938 49.2953 22.5701C48.7398 22.9464 48.2882 23.4653 47.9935 24.0704C47.6988 23.4653 47.2472 22.9463 46.6917 22.57Z" fill="#1ABAC7" stroke="#1ABAC7" stroke-width="0.2"/>
<path d="M29.0625 15.6303L29.0625 15.6303C29.1867 16.0443 29.5678 16.328 30.0001 16.328C30.4324 16.328 30.8135 16.0443 30.9378 15.6303L30.9378 15.6303L31.6534 13.2448L31.6534 13.2447C31.8194 12.6912 32.2421 12.2392 32.7832 12.0363L34.132 11.5305L34.132 11.5305C34.514 11.3872 34.7671 11.022 34.7671 10.614C34.7671 10.206 34.514 9.84066 34.132 9.69746C34.132 9.69746 34.132 9.69746 34.132 9.69745L32.7832 9.19168C32.2421 8.98878 31.8194 8.53677 31.6534 7.98312L31.6534 7.9831L30.9378 5.59765C30.9378 5.59764 30.9378 5.59764 30.9378 5.59763C30.8136 5.18361 30.4325 4.9 30.0001 4.9C29.5678 4.9 29.1867 5.18362 29.0625 5.59762L29.0625 5.59763L28.3468 7.98321C28.3468 7.98322 28.3468 7.98322 28.3468 7.98322C28.1807 8.53678 27.7581 8.9889 27.217 9.1918L27.2521 9.28543L27.217 9.1918L25.8682 9.69758L25.8682 9.69758C25.4862 9.84088 25.233 10.2061 25.233 10.6141C25.233 11.0221 25.4861 11.3873 25.8682 11.5305C25.8683 11.5305 25.8683 11.5305 25.8683 11.5305L27.217 12.0363L27.2521 11.9427L27.217 12.0363C27.7581 12.2392 28.1807 12.6913 28.3468 13.2449L29.0625 15.6303ZM28.6983 10.614C29.2536 10.2377 29.7052 9.71872 30 9.11359C30.2948 9.71871 30.7463 10.2376 31.3017 10.614C30.7463 10.9902 30.2947 11.5092 30 12.1143C29.7053 11.5092 29.2536 10.9902 28.6983 10.614Z" fill="#1ABAC7" stroke="#1ABAC7" stroke-width="0.2"/>
<path d="M60.0938 48.3867L60.0938 48.3869C60.0976 48.4218 60.1 48.4578 60.1 48.495V53.2302C60.1 53.7709 59.6618 54.2091 59.1211 54.2091H50.2232C49.6824 54.2091 49.2443 53.7709 49.2443 53.2302C49.2443 52.6896 49.6824 52.2513 50.2232 52.2513H58.1422V49.474H14.5145C13.9739 49.474 13.5356 49.0357 13.5356 48.495C13.5356 47.9544 13.9739 47.5161 14.5145 47.5161H18.8804L16.0632 40.0037H5.1086L2.29141 47.5161H10.39C10.9306 47.5161 11.3689 47.9544 11.3689 48.495C11.3689 49.0357 10.9306 49.474 10.39 49.474H1.85781V52.2513H46.13C46.6708 52.2513 47.1089 52.6896 47.1089 53.2302C47.1089 53.7709 46.6708 54.2091 46.13 54.2091H0.878906C0.338287 54.2091 -0.1 53.7709 -0.1 53.2302V48.495C-0.1 48.4493 -0.0920269 48.3891 -0.0849033 48.3437C-0.0779199 48.2992 -0.0699031 48.2577 -0.0671463 48.2472L60.0938 48.3867ZM60.0938 48.3867C60.085 48.3083 60.0658 48.2261 60.0377 48.1514L60.0938 48.3867ZM46.6856 29.2459L46.7793 29.2108L50.0925 38.0459H55.5698C55.9779 38.0459 56.3431 38.2991 56.4864 38.6811L60.0377 48.1513L46.6856 29.2459ZM46.6856 29.2459L46.7793 29.2108C46.636 28.8288 46.2708 28.5756 45.8627 28.5756M46.6856 29.2459L45.8627 28.5756M45.8627 28.5756H40.3854M45.8627 28.5756H40.3854M40.3854 28.5756L37.0723 19.7406C36.929 19.3585 36.5638 19.1053 36.1557 19.1053H34.4013C33.8606 19.1053 33.4224 19.5436 33.4224 20.0842C33.4224 20.6248 33.8606 21.0631 34.4013 21.0631H35.4773L38.2945 28.5756H21.7055L24.5227 21.0631H30.2862C30.8269 21.0631 31.2651 20.6248 31.2651 20.0842C31.2651 19.5436 30.8269 19.1053 30.2862 19.1053H23.8443C23.4363 19.1053 23.0709 19.3584 22.9277 19.7406C22.9277 19.7406 22.9277 19.7406 22.9277 19.7406L19.6146 28.5756H14.1373C13.7293 28.5756 13.3639 28.8287 13.2207 29.2108C13.2207 29.2108 13.2207 29.2109 13.2207 29.2109L9.90758 38.0459H4.43027C4.02228 38.0459 3.65695 38.2989 3.51375 38.6811C3.51375 38.6811 3.51374 38.6811 3.51374 38.6811L-0.0376145 48.1514C-0.0408101 48.1599 -0.0599712 48.2201 -0.0670922 48.247L40.3854 28.5756ZM34.2297 30.5334H45.1843L48.0016 38.0459H31.4125L34.2297 30.5334ZM41.8459 40.0037L39.707 45.7071L37.5682 40.0037H41.8459ZM27.8613 30.5334H32.1387L30 36.2368L27.8613 30.5334ZM25.7704 30.5334L28.5876 38.0459H11.9985L14.8157 30.5334H25.7704ZM20.2929 45.7071L18.1541 40.0037H22.4318L20.2929 45.7071ZM35.4773 40.0037L38.2945 47.5161H21.7055L24.5227 40.0037H35.4773ZM54.8914 40.0037L57.7086 47.5161H41.1195L43.9368 40.0037H54.8914Z" fill="#1ABAC7" stroke="#1ABAC7" stroke-width="0.2"/>
</g>
<defs>
<clipPath id="clip0">
<rect width="60" height="60" fill="white"/>
</clipPath>
</defs>
</svg>
