<svg width="117" height="117" viewBox="0 0 117 117" fill="none" xmlns="http://www.w3.org/2000/svg">
<path d="M0 57.2808C0 62.5697 4.2875 66.8572 9.57639 66.8572C16.6953 66.8572 21.3255 74.3489 18.1418 80.7163L15.5932 85.8134C12.2686 92.4624 17.1036 100.286 24.5374 100.286H27.2481C31.0358 100.286 34.4984 98.1456 36.1923 94.7577L49.0871 68.9686C49.7813 67.5801 50.1428 66.0489 50.1428 64.4965V26.7144C50.1428 21.1915 45.6656 16.7144 40.1428 16.7144H10C4.47715 16.7144 0 21.1915 0 26.7144V57.2808Z" fill="#252931"/>
<path d="M76.8572 16.7144C71.3344 16.7144 66.8572 21.1915 66.8572 26.7144V57.2808C66.8572 62.5697 71.1447 66.8572 76.4336 66.8572C83.5525 66.8572 88.1827 74.3489 84.999 80.7163L82.4504 85.8134C79.1258 92.4624 83.9608 100.286 91.3946 100.286H94.1053C97.893 100.286 101.356 98.1456 103.05 94.7577L115.944 68.9686C116.639 67.5801 117 66.0489 117 64.4965V26.7144C117 21.1915 112.523 16.7144 107 16.7144H76.8572Z" fill="#252931"/>
</svg>
