<svg width="60" height="60" viewBox="0 0 60 60" fill="none" xmlns="http://www.w3.org/2000/svg">
<path d="M30.6825 19.7065L30.6825 19.7065C31.0658 19.3421 31.3345 19.0075 31.5104 18.7435C31.5984 18.6115 31.6628 18.4977 31.7066 18.4072C31.7483 18.321 31.769 18.261 31.7758 18.2282C31.782 17.3808 32.1162 16.5866 32.7181 15.9903C33.3219 15.392 34.1224 15.0636 34.9746 15.0636L35.0052 15.0637L35.0053 15.0637L35.0042 15.1637L30.6825 19.7065ZM30.6825 19.7065C30.0549 20.3035 28.9689 21.126 27.364 21.6471L27.3949 21.7422M30.6825 19.7065L27.3949 21.7422M27.3949 21.7422L27.364 21.6471C26.7102 21.8594 26.115 22.2496 25.5945 22.8038C25.3383 23.0765 24.9587 23.4498 24.4899 23.8276C24.247 23.7098 23.9749 23.643 23.6871 23.643H18.2758C17.257 23.643 16.4284 24.4717 16.4284 25.4904V39.9205C16.4284 40.9393 17.257 41.7679 18.2758 41.7679H23.6871C24.3607 41.7679 24.9503 41.4052 25.273 40.866H39.0235C40.5396 40.866 41.7728 39.6328 41.7728 38.1168C41.7728 37.6416 41.6517 37.1942 41.4386 36.8037C42.1826 36.3114 42.6747 35.4669 42.6747 34.5092C42.6747 34.0341 42.5536 33.5866 42.3404 33.1961C43.0845 32.7039 43.5765 31.8593 43.5765 30.9016C43.5765 30.3633 43.4209 29.8604 43.1524 29.4358C43.955 28.8539 44.4785 27.9085 44.4785 26.843C44.4785 25.0782 43.043 23.6428 41.2783 23.6428M27.3949 21.7422L41.2783 23.6428M41.2783 23.6428H35.8009H41.2783ZM26.9729 24.0982L26.9729 24.0981C27.2766 23.7746 27.6049 23.5568 27.9478 23.4456L27.9478 23.4456C29.9558 22.7937 31.308 21.7438 32.0895 20.9764C32.5789 20.496 32.9717 20.0034 33.2427 19.5386C33.5128 19.0755 33.6666 18.6322 33.6666 18.2523C33.6666 17.9039 33.8023 17.578 34.0489 17.3335L33.9786 17.2625L34.0489 17.3335C34.2981 17.0866 34.6284 16.9553 34.9881 16.9547C35.4244 16.9589 35.7133 17.1812 35.8816 17.3707C36.1702 17.6957 36.3146 18.1668 36.2638 18.6299C36.0831 20.274 34.7606 22.329 32.8774 23.8535L32.8774 23.8535C32.5661 24.1055 32.4474 24.5263 32.581 24.9039C32.7146 25.2814 33.0718 25.5338 33.4723 25.5338H41.278C41.9999 25.5338 42.5872 26.1211 42.5872 26.843C42.5872 27.5649 42 28.1521 41.2783 28.1521H40.8273C40.3051 28.1521 39.8817 28.5754 39.8817 29.0977C39.8817 29.6198 40.305 30.0432 40.8273 30.0432C41.3004 30.0432 41.6856 30.4284 41.6856 30.9015C41.6856 31.3747 41.3004 31.7598 40.8273 31.7598H39.9254C39.4033 31.7598 38.9799 32.1831 38.9799 32.7054C38.9799 33.2275 39.4032 33.6509 39.9254 33.6509C40.3986 33.6509 40.7837 34.036 40.7837 34.5092C40.7837 34.9824 40.3986 35.3675 39.9254 35.3675H39.0235C38.5014 35.3675 38.078 35.7908 38.078 36.313C38.078 36.8352 38.5013 37.2586 39.0235 37.2586C39.4967 37.2586 39.8818 37.6437 39.8818 38.1169C39.8818 38.59 39.4967 38.9751 39.0235 38.9751H25.5345V30.9018C25.5345 30.3797 25.1112 29.9563 24.589 29.9563C24.0667 29.9563 23.6434 30.3796 23.6434 30.9018V39.8769H18.3195V25.5338H23.6434V27.294C23.6434 27.8161 24.0667 28.2395 24.589 28.2395C25.1112 28.2395 25.5345 27.8162 25.5345 27.294V25.4901C25.5345 25.4644 25.5333 25.439 25.5318 25.4148C26.1512 24.9309 26.6469 24.4452 26.9729 24.0982Z" fill="#1ABAC7" stroke="#1ABAC7" stroke-width="0.2"/>
<path d="M20.0316 37.2098C20.0316 36.6877 20.4594 36.2599 20.9816 36.2599C21.5038 36.2599 21.9317 36.6878 21.9316 37.2098H20.0316ZM20.0316 37.2098C20.0316 37.732 20.4594 38.1598 20.9816 38.1598M20.0316 37.2098L20.9816 38.1598M20.9816 38.1598C21.5037 38.1598 21.9315 37.732 21.9316 37.2099L20.9816 38.1598Z" fill="#1ABAC7" stroke="#1ABAC7" stroke-width="0.2"/>
<mask id="path-4-outside-1" maskUnits="userSpaceOnUse" x="2" y="2" width="56" height="56" fill="black">
<rect fill="white" x="2" y="2" width="56" height="56"/>
<path d="M55.4929 30L56.9454 26.1564C57.0512 25.8768 57.0013 25.5622 56.8143 25.3288L54.2452 22.1221L54.4388 18.0178C54.453 17.7193 54.3083 17.4353 54.0585 17.2713L50.6242 15.0154L49.5402 11.0521C49.4613 10.7637 49.2361 10.5384 48.9478 10.4597L44.9845 9.37565L42.7286 5.94148C42.5645 5.69163 42.2806 5.54756 41.9821 5.56116L37.8778 5.7548L34.6711 3.18569C34.4378 2.9988 34.1232 2.94891 33.8435 3.05459L29.9999 4.50711L26.1565 3.0547C25.8767 2.94891 25.5622 2.9988 25.3289 3.1858L22.1223 5.75491L18.0179 5.56127C17.718 5.54714 17.4354 5.69184 17.2714 5.94159L15.0157 9.37586L11.0524 10.4599C10.764 10.5388 10.5387 10.764 10.4599 11.0523L9.37594 15.0156L5.94166 17.2714C5.69181 17.4355 5.54721 17.7194 5.56134 18.0179L5.75498 22.1222L3.18587 25.3289C2.99898 25.5622 2.94909 25.8768 3.05477 26.1565L4.50718 30L3.05467 33.8435C2.94888 34.1231 2.99877 34.4377 3.18576 34.6711L5.75488 37.8777L5.56124 41.9821C5.5471 42.2805 5.69181 42.5646 5.94156 42.7286L9.37583 44.9844L10.4598 48.9477C10.5387 49.2361 10.764 49.4614 11.0523 49.5402L15.0156 50.6242L17.2713 54.0584C17.4354 54.3083 17.7199 54.452 18.0178 54.4388L22.1222 54.2451L25.3288 56.8142C25.5621 57.0012 25.8768 57.0511 26.1564 56.9453L30 55.4928L33.8436 56.9453C33.9407 56.9819 34.0418 56.9999 34.1424 56.9999C34.3318 56.9999 34.5188 56.9363 34.6711 56.8142L37.8778 54.2451L41.9821 54.4388C42.2816 54.4521 42.5645 54.3082 42.7286 54.0584L44.9845 50.6242L48.9478 49.5402C49.2362 49.4613 49.4614 49.236 49.5402 48.9477L50.6242 44.9844L54.0585 42.7286C54.3084 42.5645 54.453 42.2805 54.4388 41.9821L54.2452 37.8777L56.8143 34.6711C57.0012 34.4378 57.0511 34.1232 56.9454 33.8435L55.4929 30ZM53.7981 30.2989L55.193 33.9902L52.7257 37.0697C52.5969 37.2304 52.5312 37.4326 52.5409 37.6382L52.727 41.5799L49.4289 43.7463C49.2568 43.8593 49.1317 44.0313 49.0774 44.23L48.0364 48.0363L44.2301 49.0774C44.0315 49.1317 43.8596 49.2567 43.7464 49.4288L41.58 52.7269L37.6383 52.5409C37.4325 52.5314 37.2304 52.5969 37.0698 52.7256L33.9902 55.193L30.2989 53.798C30.2026 53.7617 30.1013 53.7435 30 53.7435C29.8988 53.7435 29.7974 53.7618 29.7011 53.798L26.0098 55.193L22.9303 52.7256C22.7696 52.5969 22.5671 52.5314 22.3618 52.5409L18.4201 52.7269L16.2537 49.4288C16.1407 49.2568 15.9687 49.1317 15.77 49.0774L11.9637 48.0363L10.9226 44.23C10.8683 44.0314 10.7433 43.8595 10.5712 43.7463L7.2731 41.5799L7.45915 37.6382C7.46885 37.4325 7.40314 37.2304 7.27436 37.0697L4.80703 33.9902L6.20206 30.2989C6.27484 30.1063 6.27484 29.8937 6.20206 29.7011L4.80703 26.0098L7.27436 22.9302C7.40314 22.7696 7.46885 22.5674 7.45915 22.3617L7.2731 18.42L10.5712 16.2536C10.7432 16.1406 10.8683 15.9686 10.9226 15.7699L11.9637 11.9636L15.77 10.9226C15.9686 10.8682 16.1405 10.7433 16.2537 10.5711L18.4201 7.27303L22.3618 7.45907C22.5672 7.46867 22.7696 7.40307 22.9303 7.27429L26.0098 4.80696L29.7011 6.20199C29.8938 6.27477 30.1063 6.27477 30.2989 6.20199L33.9902 4.80696L37.0698 7.27429C37.2304 7.40318 37.4327 7.46878 37.6383 7.45907L41.58 7.27303L43.7464 10.5711C43.8594 10.7432 44.0314 10.8682 44.2301 10.9226L48.0364 11.9636L49.0774 15.7699C49.1317 15.9685 49.2567 16.1404 49.4289 16.2536L52.727 18.42L52.5409 22.3617C52.5312 22.5675 52.5969 22.7696 52.7257 22.9302L55.193 26.0098L53.798 29.7011C53.7253 29.8938 53.7253 30.1063 53.7981 30.2989Z"/>
</mask>
<path d="M55.4929 30L56.9454 26.1564C57.0512 25.8768 57.0013 25.5622 56.8143 25.3288L54.2452 22.1221L54.4388 18.0178C54.453 17.7193 54.3083 17.4353 54.0585 17.2713L50.6242 15.0154L49.5402 11.0521C49.4613 10.7637 49.2361 10.5384 48.9478 10.4597L44.9845 9.37565L42.7286 5.94148C42.5645 5.69163 42.2806 5.54756 41.9821 5.56116L37.8778 5.7548L34.6711 3.18569C34.4378 2.9988 34.1232 2.94891 33.8435 3.05459L29.9999 4.50711L26.1565 3.0547C25.8767 2.94891 25.5622 2.9988 25.3289 3.1858L22.1223 5.75491L18.0179 5.56127C17.718 5.54714 17.4354 5.69184 17.2714 5.94159L15.0157 9.37586L11.0524 10.4599C10.764 10.5388 10.5387 10.764 10.4599 11.0523L9.37594 15.0156L5.94166 17.2714C5.69181 17.4355 5.54721 17.7194 5.56134 18.0179L5.75498 22.1222L3.18587 25.3289C2.99898 25.5622 2.94909 25.8768 3.05477 26.1565L4.50718 30L3.05467 33.8435C2.94888 34.1231 2.99877 34.4377 3.18576 34.6711L5.75488 37.8777L5.56124 41.9821C5.5471 42.2805 5.69181 42.5646 5.94156 42.7286L9.37583 44.9844L10.4598 48.9477C10.5387 49.2361 10.764 49.4614 11.0523 49.5402L15.0156 50.6242L17.2713 54.0584C17.4354 54.3083 17.7199 54.452 18.0178 54.4388L22.1222 54.2451L25.3288 56.8142C25.5621 57.0012 25.8768 57.0511 26.1564 56.9453L30 55.4928L33.8436 56.9453C33.9407 56.9819 34.0418 56.9999 34.1424 56.9999C34.3318 56.9999 34.5188 56.9363 34.6711 56.8142L37.8778 54.2451L41.9821 54.4388C42.2816 54.4521 42.5645 54.3082 42.7286 54.0584L44.9845 50.6242L48.9478 49.5402C49.2362 49.4613 49.4614 49.236 49.5402 48.9477L50.6242 44.9844L54.0585 42.7286C54.3084 42.5645 54.453 42.2805 54.4388 41.9821L54.2452 37.8777L56.8143 34.6711C57.0012 34.4378 57.0511 34.1232 56.9454 33.8435L55.4929 30ZM53.7981 30.2989L55.193 33.9902L52.7257 37.0697C52.5969 37.2304 52.5312 37.4326 52.5409 37.6382L52.727 41.5799L49.4289 43.7463C49.2568 43.8593 49.1317 44.0313 49.0774 44.23L48.0364 48.0363L44.2301 49.0774C44.0315 49.1317 43.8596 49.2567 43.7464 49.4288L41.58 52.7269L37.6383 52.5409C37.4325 52.5314 37.2304 52.5969 37.0698 52.7256L33.9902 55.193L30.2989 53.798C30.2026 53.7617 30.1013 53.7435 30 53.7435C29.8988 53.7435 29.7974 53.7618 29.7011 53.798L26.0098 55.193L22.9303 52.7256C22.7696 52.5969 22.5671 52.5314 22.3618 52.5409L18.4201 52.7269L16.2537 49.4288C16.1407 49.2568 15.9687 49.1317 15.77 49.0774L11.9637 48.0363L10.9226 44.23C10.8683 44.0314 10.7433 43.8595 10.5712 43.7463L7.2731 41.5799L7.45915 37.6382C7.46885 37.4325 7.40314 37.2304 7.27436 37.0697L4.80703 33.9902L6.20206 30.2989C6.27484 30.1063 6.27484 29.8937 6.20206 29.7011L4.80703 26.0098L7.27436 22.9302C7.40314 22.7696 7.46885 22.5674 7.45915 22.3617L7.2731 18.42L10.5712 16.2536C10.7432 16.1406 10.8683 15.9686 10.9226 15.7699L11.9637 11.9636L15.77 10.9226C15.9686 10.8682 16.1405 10.7433 16.2537 10.5711L18.4201 7.27303L22.3618 7.45907C22.5672 7.46867 22.7696 7.40307 22.9303 7.27429L26.0098 4.80696L29.7011 6.20199C29.8938 6.27477 30.1063 6.27477 30.2989 6.20199L33.9902 4.80696L37.0698 7.27429C37.2304 7.40318 37.4327 7.46878 37.6383 7.45907L41.58 7.27303L43.7464 10.5711C43.8594 10.7432 44.0314 10.8682 44.2301 10.9226L48.0364 11.9636L49.0774 15.7699C49.1317 15.9685 49.2567 16.1404 49.4289 16.2536L52.727 18.42L52.5409 22.3617C52.5312 22.5675 52.5969 22.7696 52.7257 22.9302L55.193 26.0098L53.798 29.7011C53.7253 29.8938 53.7253 30.1063 53.7981 30.2989Z" fill="#1ABAC7"/>
<path d="M55.4929 30L56.9454 26.1564C57.0512 25.8768 57.0013 25.5622 56.8143 25.3288L54.2452 22.1221L54.4388 18.0178C54.453 17.7193 54.3083 17.4353 54.0585 17.2713L50.6242 15.0154L49.5402 11.0521C49.4613 10.7637 49.2361 10.5384 48.9478 10.4597L44.9845 9.37565L42.7286 5.94148C42.5645 5.69163 42.2806 5.54756 41.9821 5.56116L37.8778 5.7548L34.6711 3.18569C34.4378 2.9988 34.1232 2.94891 33.8435 3.05459L29.9999 4.50711L26.1565 3.0547C25.8767 2.94891 25.5622 2.9988 25.3289 3.1858L22.1223 5.75491L18.0179 5.56127C17.718 5.54714 17.4354 5.69184 17.2714 5.94159L15.0157 9.37586L11.0524 10.4599C10.764 10.5388 10.5387 10.764 10.4599 11.0523L9.37594 15.0156L5.94166 17.2714C5.69181 17.4355 5.54721 17.7194 5.56134 18.0179L5.75498 22.1222L3.18587 25.3289C2.99898 25.5622 2.94909 25.8768 3.05477 26.1565L4.50718 30L3.05467 33.8435C2.94888 34.1231 2.99877 34.4377 3.18576 34.6711L5.75488 37.8777L5.56124 41.9821C5.5471 42.2805 5.69181 42.5646 5.94156 42.7286L9.37583 44.9844L10.4598 48.9477C10.5387 49.2361 10.764 49.4614 11.0523 49.5402L15.0156 50.6242L17.2713 54.0584C17.4354 54.3083 17.7199 54.452 18.0178 54.4388L22.1222 54.2451L25.3288 56.8142C25.5621 57.0012 25.8768 57.0511 26.1564 56.9453L30 55.4928L33.8436 56.9453C33.9407 56.9819 34.0418 56.9999 34.1424 56.9999C34.3318 56.9999 34.5188 56.9363 34.6711 56.8142L37.8778 54.2451L41.9821 54.4388C42.2816 54.4521 42.5645 54.3082 42.7286 54.0584L44.9845 50.6242L48.9478 49.5402C49.2362 49.4613 49.4614 49.236 49.5402 48.9477L50.6242 44.9844L54.0585 42.7286C54.3084 42.5645 54.453 42.2805 54.4388 41.9821L54.2452 37.8777L56.8143 34.6711C57.0012 34.4378 57.0511 34.1232 56.9454 33.8435L55.4929 30ZM53.7981 30.2989L55.193 33.9902L52.7257 37.0697C52.5969 37.2304 52.5312 37.4326 52.5409 37.6382L52.727 41.5799L49.4289 43.7463C49.2568 43.8593 49.1317 44.0313 49.0774 44.23L48.0364 48.0363L44.2301 49.0774C44.0315 49.1317 43.8596 49.2567 43.7464 49.4288L41.58 52.7269L37.6383 52.5409C37.4325 52.5314 37.2304 52.5969 37.0698 52.7256L33.9902 55.193L30.2989 53.798C30.2026 53.7617 30.1013 53.7435 30 53.7435C29.8988 53.7435 29.7974 53.7618 29.7011 53.798L26.0098 55.193L22.9303 52.7256C22.7696 52.5969 22.5671 52.5314 22.3618 52.5409L18.4201 52.7269L16.2537 49.4288C16.1407 49.2568 15.9687 49.1317 15.77 49.0774L11.9637 48.0363L10.9226 44.23C10.8683 44.0314 10.7433 43.8595 10.5712 43.7463L7.2731 41.5799L7.45915 37.6382C7.46885 37.4325 7.40314 37.2304 7.27436 37.0697L4.80703 33.9902L6.20206 30.2989C6.27484 30.1063 6.27484 29.8937 6.20206 29.7011L4.80703 26.0098L7.27436 22.9302C7.40314 22.7696 7.46885 22.5674 7.45915 22.3617L7.2731 18.42L10.5712 16.2536C10.7432 16.1406 10.8683 15.9686 10.9226 15.7699L11.9637 11.9636L15.77 10.9226C15.9686 10.8682 16.1405 10.7433 16.2537 10.5711L18.4201 7.27303L22.3618 7.45907C22.5672 7.46867 22.7696 7.40307 22.9303 7.27429L26.0098 4.80696L29.7011 6.20199C29.8938 6.27477 30.1063 6.27477 30.2989 6.20199L33.9902 4.80696L37.0698 7.27429C37.2304 7.40318 37.4327 7.46878 37.6383 7.45907L41.58 7.27303L43.7464 10.5711C43.8594 10.7432 44.0314 10.8682 44.2301 10.9226L48.0364 11.9636L49.0774 15.7699C49.1317 15.9685 49.2567 16.1404 49.4289 16.2536L52.727 18.42L52.5409 22.3617C52.5312 22.5675 52.5969 22.7696 52.7257 22.9302L55.193 26.0098L53.798 29.7011C53.7253 29.8938 53.7253 30.1063 53.7981 30.2989Z" stroke="#1ABAC7" stroke-width="0.4" mask="url(#path-4-outside-1)"/>
<path d="M45.9611 15.3324L45.9611 15.3324C46.3142 15.717 46.2886 16.3153 45.9039 16.6683C45.7224 16.8349 45.4931 16.9172 45.2647 16.9172C45.0094 16.9172 44.7545 16.8143 44.568 16.6112C44.3748 16.4009 44.1742 16.1915 43.972 15.9893C43.7696 15.7869 43.5604 15.5865 43.3501 15.3934L45.9611 15.3324ZM45.9611 15.3324C45.7497 15.1023 45.5305 14.8735 45.3092 14.6522C45.0879 14.431 44.8591 14.2117 44.629 14.0004L44.629 14.0003M45.9611 15.3324L44.629 14.0003M44.629 14.0003C44.2444 13.6472 43.6463 13.6727 43.2931 14.0574L43.2931 14.0574M44.629 14.0003L43.2931 14.0574M43.2931 14.0574C42.94 14.442 42.9654 15.0402 43.3501 15.3933L43.2931 14.0574Z" fill="#1ABAC7" stroke="#1ABAC7" stroke-width="0.2"/>
<path d="M27.7259 8.41549L27.7259 8.4155C22.7961 8.92623 18.1478 11.1409 14.6368 14.6518L14.7075 14.7225L14.6368 14.6518C10.7729 18.5157 8.52317 23.6488 8.30215 29.1053L8.40206 29.1093L8.30215 29.1053C8.0825 34.5295 9.87911 39.7961 13.3613 43.9345C13.5482 44.1567 13.8159 44.2712 14.0852 44.2712C14.3001 44.2712 14.5163 44.1983 14.6935 44.0493L14.6936 44.0492C15.093 43.713 15.1444 43.1166 14.8083 42.7171C11.6307 38.9405 9.99115 34.1339 10.1916 29.1819C10.3933 24.2013 12.4467 19.5161 15.9738 15.9891L15.9031 15.9183L15.9738 15.9891C19.1786 12.7841 23.4216 10.7625 27.9206 10.2964C32.357 9.8368 36.8586 10.8956 40.5964 13.2769L40.6501 13.1926L40.5964 13.277C41.0369 13.5575 41.6212 13.428 41.9018 12.9876C42.1825 12.5471 42.0528 11.9627 41.6126 11.6821L41.5588 11.7665L41.6125 11.6821C37.516 9.07223 32.5842 7.91253 27.7259 8.41549Z" fill="#1ABAC7" stroke="#1ABAC7" stroke-width="0.2"/>
<path d="M16.0269 46.6001L16.0269 46.6001C15.6273 46.2639 15.5759 45.6675 15.9121 45.268C16.2484 44.8684 16.8448 44.817 17.2443 45.1532C21.0207 48.3307 25.8284 49.971 30.7794 49.7697C35.76 49.568 40.4451 47.5145 43.9723 43.9875C47.1771 40.7825 49.1988 36.5396 49.6648 32.0406C50.1242 27.6045 49.0656 23.1027 46.6843 19.3648C46.4037 18.9246 46.5331 18.3401 46.9736 18.0595L16.0269 46.6001ZM16.0269 46.6001C19.939 49.8918 24.8587 51.6774 29.9674 51.6773C30.2629 51.6773 30.5595 51.6712 30.8562 51.6593C36.3126 51.4383 41.4456 49.1886 45.3096 45.3247C48.8206 41.8137 51.0354 37.1654 51.546 32.2355C52.049 27.3769 50.889 22.4453 48.2791 18.3489C47.9986 17.9084 47.4138 17.7788 46.9736 18.0594L16.0269 46.6001Z" fill="#1ABAC7" stroke="#1ABAC7" stroke-width="0.2"/>
</svg>
