<svg width="60" height="60" viewBox="0 0 60 60" fill="none" xmlns="http://www.w3.org/2000/svg">
<path d="M42.7787 42.3784H37.2827C36.6355 42.3784 36.1108 42.9032 36.1108 43.5503C36.1108 44.1974 36.6355 44.7222 37.2827 44.7222H42.7787C43.4259 44.7222 43.9506 44.1974 43.9506 43.5503C43.9506 42.9032 43.4259 42.3784 42.7787 42.3784Z" fill="#1ABAC7"/>
<path d="M32.9857 42.722C32.7678 42.5029 32.4654 42.3787 32.1572 42.3787C31.849 42.3787 31.5467 42.5029 31.3287 42.722C31.1107 42.94 30.9854 43.2423 30.9854 43.5505C30.9854 43.8587 31.1107 44.1611 31.3287 44.3791C31.5467 44.597 31.849 44.7224 32.1572 44.7224C32.4654 44.7224 32.7678 44.597 32.9857 44.3791C33.2037 44.1611 33.3291 43.8587 33.3291 43.5505C33.3291 43.2423 33.2037 42.94 32.9857 42.722Z" fill="#1ABAC7"/>
<path d="M42.7788 36.9304H34.8882C34.241 36.9304 33.7163 37.4552 33.7163 38.1023C33.7163 38.7494 34.241 39.2742 34.8882 39.2742H42.7788C43.426 39.2742 43.9507 38.7494 43.9507 38.1023C43.9507 37.4552 43.426 36.9304 42.7788 36.9304Z" fill="#1ABAC7"/>
<path d="M17.994 21.1676C17.7761 20.9496 17.4737 20.8242 17.1655 20.8242C16.8573 20.8242 16.555 20.9495 16.337 21.1676C16.119 21.3855 15.9937 21.6878 15.9937 21.9961C15.9937 22.3043 16.119 22.6066 16.337 22.8245C16.555 23.0438 16.8572 23.168 17.1655 23.168C17.4737 23.168 17.7761 23.0436 17.994 22.8245C18.212 22.6066 18.3374 22.3043 18.3374 21.9961C18.3374 21.6878 18.212 21.3855 17.994 21.1676Z" fill="#1ABAC7"/>
<path d="M53.0922 54.6751L47.8602 49.443C48.7246 48.7115 49.275 47.6198 49.275 46.4013V25.7763C49.275 23.5792 47.4876 21.7919 45.2906 21.7919H40.0476H29.9118H24.6655C24.0808 21.7919 23.5257 21.9195 23.0249 22.1468V3.51563C23.0249 1.57711 21.4478 0 19.5093 0H10.1329C8.29794 0 6.73653 1.40555 6.57821 3.19981C6.49137 4.18372 6.82242 5.16411 7.48653 5.88939C8.1511 6.61501 9.09633 7.03126 10.0799 7.03126H15.9935V16.2258C15.9935 16.8729 16.5182 17.3977 17.1654 17.3977C17.8126 17.3977 18.3373 16.8729 18.3373 16.2258V5.85939C18.3373 5.21228 17.8126 4.68751 17.1654 4.68751H10.0799C9.7472 4.68751 9.44016 4.55227 9.21516 4.30653C8.99063 4.06138 8.88329 3.74145 8.91294 3.40571C8.96544 2.81016 9.50134 2.34375 10.1329 2.34375H19.5093C20.1555 2.34375 20.6812 2.86946 20.6812 3.51563V25.7761V43.198C20.2978 43.1445 19.907 43.1148 19.5093 43.1148C19.1115 43.1148 18.7207 43.1444 18.3374 43.1979V27.2198C18.3374 26.5727 17.8128 26.0479 17.1655 26.0479C16.5183 26.0479 15.9937 26.5727 15.9937 27.2198V43.8845C13.0892 45.2206 11.0666 48.1563 11.0666 51.5573C11.0666 56.2127 14.854 60 19.5093 60C22.9103 60 25.846 57.9775 27.1821 55.073H43.5465L48.1203 59.6469C48.34 59.8666 48.6382 59.9902 48.9489 59.9902C49.2597 59.9902 49.5578 59.8666 49.7776 59.6469L53.0922 56.3323C53.312 56.1124 53.4355 55.8144 53.4355 55.5036C53.4355 55.1928 53.312 54.895 53.0922 54.6751ZM31.0837 24.1355H38.8757V30.3732L35.4182 28.9782C35.2776 28.9215 35.1286 28.893 34.9797 28.893C34.8308 28.893 34.6818 28.9213 34.5412 28.9782L31.0837 30.3732V24.1355ZM19.5092 57.6564C16.1462 57.6564 13.4102 54.9204 13.4102 51.5574C13.4102 48.1945 16.1462 45.4585 19.5092 45.4585C22.8721 45.4585 25.6081 48.1945 25.6081 51.5574C25.6081 54.9204 22.8721 57.6564 19.5092 57.6564ZM27.182 48.0418C26.3386 46.2085 24.8581 44.728 23.0248 43.8846V25.7761H23.0249C23.0249 24.8715 23.7609 24.1355 24.6655 24.1355H28.7399V32.1097C28.7399 32.4991 28.9334 32.8632 29.2563 33.081C29.579 33.2989 29.989 33.3423 30.3502 33.1964L34.9796 31.3285L39.609 33.1964C39.7504 33.2534 39.8992 33.2816 40.0474 33.2816C40.2778 33.2816 40.5065 33.2137 40.703 33.081C41.0259 32.8632 41.2194 32.4991 41.2194 32.1097V24.1355H45.2905C46.1951 24.1355 46.9311 24.8715 46.9311 25.7761V46.4012C46.9311 47.3059 46.1951 48.0418 45.2905 48.0418H45.0025H27.182ZM48.9489 57.161L44.8605 53.0724C44.6408 52.8527 44.3426 52.7292 44.0319 52.7292H27.8686C27.9221 52.3459 27.9518 51.9552 27.9518 51.5573C27.9518 51.1595 27.9222 50.7688 27.8686 50.3854H45.0025C45.3155 50.3854 45.6099 50.5073 45.8313 50.7287L50.6063 55.5036L48.9489 57.161Z" fill="#1ABAC7"/>
<path d="M20.3378 50.7282C20.1197 50.5102 19.8174 50.386 19.5093 50.386C19.2011 50.386 18.8987 50.5102 18.6808 50.7282C18.4628 50.9473 18.3374 51.2484 18.3374 51.5579C18.3374 51.8661 18.4628 52.1672 18.6808 52.3864C18.8987 52.6042 19.2011 52.7297 19.5093 52.7297C19.8175 52.7297 20.1198 52.6044 20.3378 52.3864C20.5558 52.1672 20.6812 51.8661 20.6812 51.5579C20.6812 51.2484 20.5558 50.9473 20.3378 50.7282Z" fill="#1ABAC7"/>
</svg>
